<svg xmlns="http://www.w3.org/2000/svg"  viewBox="0 0 64 64" width="512px" height="512px"><path d="M 31.990234 7 C 28.740554 7 26.800655 10.804025 28.710938 13.433594 C 29.281613 14.218782 30.096541 15.334573 30.748047 16.230469 L 18.763672 32.626953 L 13.269531 28.869141 L 12.005859 22.375 L 12.005859 22.373047 C 11.915554 20.498478 10.533437 18.907937 8.6640625 18.597656 C 6.2376525 18.192375 4 20.090144 4 22.539062 L 4 22.541016 C 4 24.375411 5.0711864 26.036616 6.7226562 26.8125 L 11.462891 30.054688 L 14.017578 43.191406 A 1.0008942 1.0008942 0 0 0 15.982422 42.808594 L 13.814453 31.664062 L 18.435547 34.826172 A 1.0001 1.0001 0 0 0 19.806641 34.589844 L 31.984375 17.927734 C 34.164172 20.924003 36.35803 23.941404 38.46875 26.832031 C 40.056804 29.006869 41.475741 30.947755 42.505859 32.345703 C 43.020918 33.044677 43.438313 33.607975 43.732422 34 C 43.879477 34.196012 43.996217 34.348531 44.082031 34.458984 C 44.124941 34.514214 44.158291 34.557374 44.193359 34.599609 C 44.210899 34.620729 44.227676 34.639588 44.259766 34.673828 C 44.275806 34.690948 44.291694 34.710103 44.339844 34.751953 C 44.363924 34.772873 44.462236 34.84333 44.462891 34.84375 C 44.46354 34.84411 44.999645 35 45 35 A 1.0001 1.0001 0 0 0 45.564453 34.826172 L 50.279297 31.599609 C 49.829041 33.21101 49.400783 34.847221 48.892578 36.357422 C 47.46863 40.58888 46.287823 43.378028 46.042969 43.964844 C 39.313381 42.409474 32.259951 42.349464 26.697266 43.371094 C 23.794879 43.904139 21.300907 44.713893 19.4375 45.802734 C 17.574093 46.891576 16.233797 48.349786 16.162109 50.171875 C 16.112759 51.42319 16.754495 52.540326 17.697266 53.355469 C 18.640036 54.170612 19.891436 54.775043 21.349609 55.263672 C 24.265955 56.24093 28.039983 56.72934 31.826172 56.810547 C 35.61236 56.891757 39.391048 56.563971 42.308594 55.810547 C 43.767367 55.433835 45.012345 54.958643 45.972656 54.302734 C 46.932967 53.646825 47.676823 52.685453 47.650391 51.527344 C 47.631311 50.690115 47.185255 49.944198 46.589844 49.429688 C 45.994433 48.915175 45.249462 48.560284 44.400391 48.273438 C 42.702247 47.699743 40.552532 47.413708 38.292969 47.285156 C 33.773842 47.028053 28.964768 47.395184 26.757812 48.001953 A 1.0001 1.0001 0 1 0 27.287109 49.929688 C 28.910154 49.483455 33.866314 49.035853 38.179688 49.28125 C 40.336374 49.403949 42.36905 49.699428 43.761719 50.169922 C 44.458053 50.405169 44.986575 50.687035 45.283203 50.943359 C 45.579831 51.199684 45.645468 51.358197 45.650391 51.574219 C 45.657491 51.88386 45.494326 52.209323 44.845703 52.652344 C 44.19708 53.095364 43.130555 53.531665 41.808594 53.873047 C 39.164671 54.555811 35.507827 54.890543 31.869141 54.8125 C 28.230454 54.73446 24.591248 54.240742 21.984375 53.367188 C 20.680939 52.93041 19.643335 52.392974 19.005859 51.841797 C 18.368384 51.290619 18.137757 50.817935 18.160156 50.25 C 18.193966 49.390589 18.888126 48.439205 20.445312 47.529297 C 22.002499 46.619389 24.314605 45.841845 27.058594 45.337891 C 32.546571 44.329982 39.766304 44.390792 46.4375 46.074219 A 1.0001 1.0001 0 0 0 47.603516 45.494141 C 47.603516 45.494141 49.196282 41.721502 50.787109 36.994141 C 51.553401 34.717001 52.31279 32.225936 52.90625 29.802734 L 57.271484 26.816406 C 58.926926 26.041212 60 24.377646 60 22.541016 L 60 22.498047 A 1.0001 1.0001 0 0 0 60 22.492188 C 60.02663 20.070643 57.821944 18.18202 55.433594 18.580078 A 1.0001 1.0001 0 0 0 55.427734 18.580078 L 55.357422 18.591797 C 53.415575 18.915877 51.980396 20.600119 51.984375 22.560547 C 51.987875 24.20569 51.605847 26.366594 51.087891 28.623047 L 45.214844 32.640625 C 44.933215 32.264042 44.581026 31.787669 44.117188 31.158203 C 43.090493 29.764901 41.67118 27.827959 40.083984 25.654297 C 37.851412 22.596792 35.499199 19.362076 33.222656 16.232422 L 35.261719 13.443359 C 37.181085 10.815143 35.24441 7 31.990234 7 z M 31.990234 9 C 33.730059 9 34.673118 10.857888 33.646484 12.263672 L 31.986328 14.535156 C 31.466118 13.819726 30.792745 12.897079 30.328125 12.257812 C 29.306407 10.851382 30.251915 9 31.990234 9 z M 56.203125 20.527344 C 57.208348 20.582574 58.013656 21.406304 58.001953 22.470703 L 58 22.523438 A 1.0001 1.0001 0 0 0 58 22.541016 C 58 23.63452 57.3518 24.617329 56.345703 25.048828 A 1.0001 1.0001 0 0 0 56.175781 25.142578 L 53.335938 27.085938 C 53.619304 25.517757 53.987165 23.878904 53.984375 22.556641 C 53.982375 21.561069 54.681346 20.732373 55.6875 20.564453 A 1.0001 1.0001 0 0 0 55.693359 20.564453 L 55.761719 20.552734 C 55.911675 20.527742 56.059522 20.519454 56.203125 20.527344 z M 7.8769531 20.542969 C 8.0262477 20.535169 8.1797386 20.544223 8.3359375 20.570312 C 9.3176863 20.733265 10.02411 21.569445 10.023438 22.564453 A 1.0001 1.0001 0 0 0 10.042969 22.755859 L 10.919922 27.259766 L 7.8242188 25.142578 A 1.0001 1.0001 0 0 0 7.6542969 25.048828 C 6.6487341 24.618292 6 23.635786 6 22.541016 L 6 22.539062 C 6 21.444367 6.8318913 20.597565 7.8769531 20.542969 z"/></svg>