<?xml version="1.0" standalone="no"?>
<svg viewBox="-1300 -200 3350 3350" style="width: 585px; height: 585px; justify-content: center; align-self: center; transform: scale(-1, 1);" xmlns="http://www.w3.org/2000/svg"><g transform="rotate(360 359.8552551269531 1508.0425033569336)">

<g transform="translate(-276 479)">
    
    <path id="_Skin" data-name="âœ‹ Skin" d="M1046.534,2404.687c6.037-24.4-2.845-43.865-28.347-58.237-2.195-5.806-51.483-24.633-90.648-52.269-35.185-24.828-60.707-58.912-61.777-60.8,0,0-7.912-18.4-8.813-26.712-4.325-39.843-1.823-65.96-4.495-78.353,18-2.363,62.238-1171.145,55.083-1209.882,11.719-2.576,24.147-5.292,35.319-11.9.891-.229-.574-2.819-.532-3.306,28.028-55.028-14.968-242.141-41.916-293.946,21.4-.557,49.587-3.468,62.836-21.339,6.272-2.063,10.226-5.66,13.27-11.438a184.228,184.228,0,0,0,9.687-17.2c14.258-29.622,23.054-62.513,18.3-95.15.907-.288,5.574-.317,5.806-1.623.458-8.023-1.015-15.093-3.425-22.671C982.4,354.5,952.922,270.47,913.962,190.113c-19.523-43.009-59.915-58.7-101.767-74.85-20.134-7.912-40.277-17.043-61.29-22.224-.265-1.47.99-5.943-1.764-5.579-3.4.709-2.73,6.178-3.991,9.247-48.589-39.778-17.776-60.276-47.074-82.062C667.76-1.092,630.788-1.731,597.363,1.675c-12.331.357-22.2,5.916-25.106,18.329-10.6,25.684-35.437,44.588-62.533,50.383-2.239-3.986-8.395-15.417-11.843-11.809-39.133,1.336-98.466,15.7-135.094,26.451-36.77,9.392-73.968,26.537-83.588,66.493-17.455,71.2,10.315,363.809,55.865,420.161l1.481.025c8.075,8.264,19.051,14.322,31.489,18.382-.279,26.344-8.582,52.065-12.714,77.83-9.3,46.726-16.453,93.5-26.816,140.476-.046,5.234-19.763,76.852-.324,62.492,4.012,1.974,8.927,4.123,13.248,5.967-20.652,47.07-30.1,123.017-28.638,181.165.366,34.628-1.066,64.963-8.833,100.424-57.463,300.46-108.127,972.5-109.318,981.48-1.1,8.586,6.176,55.2,0,67.493-5.481,10.913-28.861,4.469-33.333,8.679-11.615,18.918-6.3,30.972-15.824,49.859-4.886,4.372-15.81,13.936-19.394,20.659-7.255,6.987-127.41,85.84-122.54,97.8,0,0-.548,5.741-.732,6.988-10.244,59.608,6.814,59.113,62,67.882,80.622,14.223,140.876-13.141,209.012-49.7,22.642-15.271,54.824-44.426,44.349-78.956-.289-2.111-6.5-38.431-8.966-56.873,0,0,6.678-14.769-19.166-12.927,4.25-4.665,13.587-65.1,10.4-73.1-2.023-20.594,1.118-39.288.124-60.485,10.826.8,200.893-900.355,320.111-956.354.737,5.986-.693,17.127,7.251,18.244,36.875,287.7,125.535,932.228,129.606,933.357-6.11,32.855-5.925,109.019-6.039,141.635-.935.872-5.227,4.7-5.918,5.637-.144-.243-2.939,2.549-3.082,2.622l-.378-.866c-12.558,28.321-30.861,57.488-14.684,85.242-12.006-.875-10.079,22.231-10.616,32.863,6.838,20.807,201.24,76.946,244.682,79.612,14.273,2.491,80.746-18.654,93.538-21.692C1071.619,2444.447,1055.359,2413.637,1046.534,2404.687Z" transform="translate(107.001 -7)" fill="#d08b5b"></path><path id="_Shoes" data-name="ðŸ‘Ÿ Shoes" d="M964.341,256.154a16.879,16.879,0,0,1-2.835-.2,191.964,191.964,0,0,1-22.706-3.333c-9.365-1.807-20.431-4.265-32.891-7.305-24.867-6.067-53.446-14.01-80.47-22.365-29.432-9.1-54.885-18.009-73.607-25.766a209.593,209.593,0,0,1-24.312-11.557c-6.275-3.659-9.873-6.783-10.7-9.285l.042-.99c.051-1.425.07-3.029.091-4.728.068-5.534.153-12.422,1.406-17.807a16.389,16.389,0,0,1,2.9-6.7,6.838,6.838,0,0,1,5.523-2.662c.215,0,.429.008.652.024a47.276,47.276,0,0,1-4.084-9.033,45.514,45.514,0,0,1-1.977-9.115,56.914,56.914,0,0,1,1.152-18.407c2.633-12.328,8.528-24.893,14.23-37.044,1.532-3.266,3.115-6.639,4.6-9.943l.76-1.7.378.866c.041-.021.3-.267.663-.608a14.757,14.757,0,0,1,2.388-2.029.033.033,0,0,1,.031.015,12.756,12.756,0,0,1,1.118-1.184h.144a23.818,23.818,0,0,0-.9,8.343,11.892,11.892,0,0,0,2.324,6.2,14.154,14.154,0,0,0,7.025,4.6,37.967,37.967,0,0,0,11.65,1.535c7.15,0,14.188-3.05,21.515-9.325,6.369-5.454,12.047-12.556,17.057-18.822,6.035-7.548,11.245-14.065,15.972-15.747l4.927-1.787c7.354-2.7,20.038-7.445,37.7-14.109.5,1.216,1.055,2.53,1.647,3.906.532.94,7.211,9.969,18.1,21.8,6.263,6.807,12.768,13.3,19.336,19.294a251.377,251.377,0,0,0,24.346,19.709c22.083,15.583,47.263,28.3,65.648,37.591,13.958,7.051,24.043,12.146,25,14.678a76.921,76.921,0,0,1,16.036,11.731,48.437,48.437,0,0,1,9.964,13.626,42.571,42.571,0,0,1,4.05,15.507,56.286,56.286,0,0,1-1.7,17.373c3.665,3.717,8.214,10.745,11.321,17.489a52.137,52.137,0,0,1,3.733,10.713c.784,3.667.806,6.726.064,9.092-.956,3.051-3.18,4.924-6.608,5.565-3.03.72-9.07,2.455-16.717,4.652l-.02.006c-11.151,3.2-26.424,7.591-40.315,11.08C981.5,254.139,970.489,256.154,964.341,256.154Zm-856.864-6.322c-6.878,0-13.9-.313-20.877-.931-7.147-.634-14.476-1.609-21.782-2.9l-4.865-.766-2.979-.465c-13.631-2.126-24.4-3.8-32.917-6.351a48.193,48.193,0,0,1-11.015-4.61A24.729,24.729,0,0,1,5.464,227a25.626,25.626,0,0,1-3.737-7.829A44.645,44.645,0,0,1,.092,208.748c-.4-7.768.467-17.5,2.723-30.628l.069-.531c.221-1.837.658-6.415.662-6.457-.435-1.068.127-2.726,1.669-4.927a57.011,57.011,0,0,1,6.958-7.7A323.794,323.794,0,0,1,37.435,137.41C57.81,121.7,83.18,103.909,101.7,90.919l.005,0c13.058-9.157,22.491-15.772,24.377-17.588,3.4-6.38,13.289-15.208,18.6-19.951l.01-.009.783-.7c4.427-8.776,5.66-16.148,6.853-23.277a102.369,102.369,0,0,1,2.674-12.6,58.044,58.044,0,0,1,6.3-13.978c1.71-1.61,6.185-1.662,11.367-1.723,4.3-.05,9.167-.107,13.287-1.087a54.674,54.674,0,0,1,13.222,4.441A114.361,114.361,0,0,1,213.6,12.456a90.17,90.17,0,0,1,12.07,9.242c3.392,3.169,5.525,5.978,6.169,8.123l.175.592c.384,1.324.856,3.08,1.4,5.112a252.8,252.8,0,0,0,7.854,25.353,53.431,53.431,0,0,0,5.341,10.7c2.035,2.918,4.047,4.4,5.981,4.4a24.726,24.726,0,0,0,10.871-3.016,69.314,69.314,0,0,0,13.146-9.047l1.1-1.013c8.32-7.629,15.133-12.843,20.249-15.5a25.571,25.571,0,0,1,7.607,1.345,7.957,7.957,0,0,1,4.159,3.106c1.291,2.113,1.119,5.013-.511,8.619l.313,2.3c1.97,14.19,5.727,36.842,7.532,47.728v.007c.632,3.81,1.049,6.327,1.12,6.843,4.639,15.291,1.356,31-9.756,46.7-9.992,14.115-24.327,25.332-34.593,32.256-16.633,8.924-29.26,15.384-40.944,20.945a429.324,429.324,0,0,1-40.417,17,276.64,276.64,0,0,1-41.325,11.411c-7.142,1.363-14.359,2.4-21.452,3.094C122.342,249.468,114.867,249.831,107.477,249.831Z" transform="translate(107.001 2206.288)" fill="#fff"></path><path id="_Top" data-name="ðŸ‘• Top" d="M54.069,932.116h0c.822-8.2,1.462-15.78,2.082-23.113v-.01c1.252-14.817,2.332-27.611,4.435-39.917A150.16,150.16,0,0,1,71.07,833.116l-16-6c-1.956-.843-1.218-4.1-.5-7.257a25.477,25.477,0,0,0,.73-4.257c.05-1.378-.291-2.227-1.045-2.6a7.959,7.959,0,0,1-4.371,1.9,2.9,2.9,0,0,1-2.343-1.158c-5.069-6.28,1.5-36.639,5.035-52.949,1.158-5.349,1.994-9.21,2-10.284,6.166-27.951,11.276-56.279,16.217-83.674,3.359-18.623,6.832-37.88,10.6-56.8,1.4-8.734,3.313-17.613,5.162-26.2,1.808-8.4,3.678-17.08,5.085-25.683a172,172,0,0,0,2.467-25.947,92.725,92.725,0,0,1-17.048-7.424,65.645,65.645,0,0,1-13.932-10.444l-.509-.514-1.481-.025c-5.493-6.8-10.941-17.33-16.194-31.312a413.53,413.53,0,0,1-14.206-48.1c-8.31-34.689-15.626-77.948-21.159-125.1C6.984,287.2,4.861,264.9,3.265,243.011,1.681,221.279.659,200.55.229,181.4c-.438-19.512-.25-36.865.561-51.578.844-15.331,2.352-27.506,4.479-36.185a74.138,74.138,0,0,1,4.846-13.944,70.89,70.89,0,0,1,7.1-11.982,76.333,76.333,0,0,1,9.032-10.2A90.075,90.075,0,0,1,36.882,48.93,127.02,127.02,0,0,1,61.638,35.878a213.848,213.848,0,0,1,27.22-8.733l2.224-.649c12.362-3.587,37.353-10.489,65.842-16.411,12.664-2.633,24.527-4.755,35.259-6.307A297.182,297.182,0,0,1,223.952.695,2.044,2.044,0,0,1,225.458,0c1.293,0,2.916,1.243,4.825,3.7a59.255,59.255,0,0,1,4.362,6.764l1.149,2.044c3.432,10.015,7.191,19.585,11.172,28.444A258.334,258.334,0,0,0,259.791,65.9a203.169,203.169,0,0,0,14.477,21.473,165.031,165.031,0,0,0,16.13,17.988,141.472,141.472,0,0,0,17.783,14.5,130.571,130.571,0,0,0,19.435,11.017,131.488,131.488,0,0,0,21.088,7.532,144.267,144.267,0,0,0,22.741,4.047c7.307.714,14.3,1.077,20.777,1.077a148.457,148.457,0,0,0,17.35-.962,103.311,103.311,0,0,0,15.124-2.885,73.923,73.923,0,0,0,12.9-4.808,57.014,57.014,0,0,0,10.673-6.732,50.248,50.248,0,0,0,8.448-8.655,52.5,52.5,0,0,0,6.223-10.578,64.126,64.126,0,0,0,4-12.5,86.972,86.972,0,0,0,1.774-14.426l6.986-52.43c1.515.152,1.388,2.25,1.285,3.935a8.149,8.149,0,0,0-.006,1.656c16.383,4.04,32.439,10.563,47.967,16.871l.019.008c4.362,1.772,8.873,3.6,13.3,5.345L544.53,59.8c9.454,3.67,19.511,7.67,29.01,12.052a194.6,194.6,0,0,1,26.627,14.6,117.655,117.655,0,0,1,22.684,19.381,102.441,102.441,0,0,1,9.376,12.181,105.564,105.564,0,0,1,7.805,14.213c9.48,19.553,18.736,40.05,27.512,60.92,8.367,19.9,16.568,40.785,24.376,62.078,7.388,20.148,14.676,41.35,21.662,63.016,6.541,20.286,13.058,41.728,19.37,63.732,2.8,8.819,3.828,15.6,3.425,22.67-.168.946-2.694,1.227-4.366,1.412a10.266,10.266,0,0,0-1.44.211c4.24,29.1-1.917,61.116-18.3,95.15a184.668,184.668,0,0,1-9.687,17.2,24.173,24.173,0,0,1-5.425,7.112,22.214,22.214,0,0,1-7.846,4.326,40.324,40.324,0,0,1-12.4,10.795,65.927,65.927,0,0,1-15.963,6.367c-12.228,3.258-25.532,3.944-34.475,4.177,6.633,12.75,14.4,34.076,21.86,60.046,3.757,13.073,7.336,26.94,10.635,41.217,3.436,14.863,6.49,29.835,9.079,44.5,2.742,15.534,4.929,30.557,6.5,44.653,1.681,15.07,2.659,29.09,2.9,41.67a230.481,230.481,0,0,1-1.713,35.554c-1.5,10.825-3.975,19.675-7.351,26.3-.008.1.01.767.035,1.693.106,3.861.353,12.9-.36,13.081-4.415,2.612-10.558,5.007-18.78,7.324-7.014,1.976-14.332,3.548-20.212,4.81q-2.125.456-4.008.867l-21,3c.216,1.473,2.786,2.841,6.344,4.734,4.418,2.352,10.468,5.572,15.324,10.831a30.98,30.98,0,0,1,6.086,9.592,35.427,35.427,0,0,1,2.335,13.613L54.07,932.116ZM201.887,387.442h0a143.826,143.826,0,0,1,25.474,2.347,176.908,176.908,0,0,1,26.5,7.04l1.091.383c23.182,8.207,39.989,14.6,49.954,18.994l36.27,30.537-11.632,54.528,2.806.131c10.68.48,20.39.724,28.861.724,13.695,0,24.654-.637,32.571-1.892a51.672,51.672,0,0,0,9.756-2.365,13.086,13.086,0,0,0,5.4-3.311,34.549,34.549,0,0,0,6.226-10.17,23.027,23.027,0,0,0,1.427-10.29l-1.116-2.664c-8.964-21.492-15.5-39.4-19.412-53.215a137.373,137.373,0,0,1-4-17.933,39.678,39.678,0,0,1-.2-12.15,94.678,94.678,0,0,0,1.738-16.852,41.789,41.789,0,0,0-1.738-12.766l-2.524-1.315c-10.23-5.291-20.231-9.986-29.725-13.954a287.273,287.273,0,0,0-27.507-9.967,201.393,201.393,0,0,0-25.289-5.98,142.634,142.634,0,0,0-23.071-1.993,420.854,420.854,0,0,0-46.228,2.645c-15.8,1.755-32.3,4.425-49.041,7.936l-5.284,7.439,5.284,44.807a129.53,129.53,0,0,1,13.4-.692h0Z" transform="translate(380.93 50.884)" fill="#9ddadb"></path><path id="_Ink" data-name="ðŸ– Ink" d="M967.571,2466.076c-1.1,0-2.192-.03-3.246-.091a453.7,453.7,0,0,1-60.268-8.046,614.2,614.2,0,0,1-63.573-16.2,581.356,581.356,0,0,1-60.75-22.589,384.144,384.144,0,0,1-51.8-27.2,29.639,29.639,0,0,1-9.472-12.611,33.09,33.09,0,0,1-2.107-7.773,30.669,30.669,0,0,1-.117-7.972A25.083,25.083,0,0,1,720.543,2352a24.175,24.175,0,0,1,10.424-8.324,41.925,41.925,0,0,1-5.654-21.2c.04-6.779,1.572-13.545,3.344-21.379l.019-.084c.443-1.959.9-3.984,1.352-6.086,2.389-10.455,6.087-24.029,13.537-36.3a1.249,1.249,0,0,1,1.083-.623,1.034,1.034,0,0,1,1.086.911c.816,11.6-.091,23.583-.968,35.168l-.013.173q-.138,1.825-.274,3.646l-.105,1.439c-.209,2.914-.485,5.405-.729,7.6-.768,6.928-1.275,11.5,1.176,20.057a23.412,23.412,0,0,0,3.882,7.781,40.453,40.453,0,0,0,6.886,7.072c5.113,4.2,11.828,8.209,20.53,12.255,15.935,7.408,35.254,13.37,52.3,18.629l.015,0,.007,0c11.315,3.491,21.087,6.506,28.333,9.44,23.07,7.146,46.708,13.6,70.258,19.177l1.742.377c3.414.751,6.912,1.585,10.3,2.391l.07.017c12.755,3.038,25.944,6.18,39.23,6.18a74.735,74.735,0,0,0,12.229-.963,31.287,31.287,0,0,1,8.59-4.241c3.075-1.03,6.367-1.787,9.55-2.518,7.065-1.623,14.37-3.3,20.017-8.085,7.225-7.8,9.379-17.957,6.4-30.181-2.733-11.22-9.288-21.953-14.307-28.981a15.992,15.992,0,0,1-4.866.763,21.431,21.431,0,0,1-9.763-2.666,74.643,74.643,0,0,1-8.843-5.625c-1.745-1.23-3.393-2.391-5.03-3.4l-.3-.183c-4.137-2.617-8.338-3.014-12.4-3.4s-8.261-.78-12.4-3.387l-1.871.354c-5.9,1.125-11.5,2.273-16.449,3.285l-.033.007c-8.309,1.7-14.312,2.931-16.2,2.932-.383,0-.587-.053-.6-.158-.122-.7,7.942-3.893,27.832-11.007-8.174-5.108-16.143-10.127-23.77-15.333-7.455.9-15.324,3.233-22.934,5.489l-.007,0c-8.941,2.651-17.387,5.156-25.27,5.56,9.5-8.851,22.242-13.917,34.564-18.816l1.817-.723a173.348,173.348,0,0,1-20.909-18.4l-6.066,1.513c-16.918,4.2-28.226,6.806-32.318,6.806-1,0-1.55-.165-1.619-.491-.165-.768,2.219-2.446,7.288-5.13,5.258-2.784,13.4-6.652,24.9-11.825-4.655-5.17-7.517-11.615-10.285-17.849-1.55-3.49-3.152-7.1-5.049-10.438a39.05,39.05,0,0,0-6.983-9.2c-16.345,3.424-32.389,10.569-47.686,21.237-5.251,3.76-9.235,8.283-13.453,13.073l-.134.152q-.517.588-1.037,1.176a71.856,71.856,0,0,1-8.6,9.292,58.142,58.142,0,0,1-9.3,6.883,44.151,44.151,0,0,1-9.587,4.275,32.72,32.72,0,0,1-9.461,1.47,25.98,25.98,0,0,1-8.879-1.52,25.271,25.271,0,0,1-7.937-4.69c-5.136-4.441-8.978-11.059-11.42-19.671a.619.619,0,0,1,.122-.542.885.885,0,0,1,.671-.323.548.548,0,0,1,.513.293l.037.088a26.382,26.382,0,0,0,9.494,10.913,28.241,28.241,0,0,0,6.883,3.381,24.234,24.234,0,0,0,7.576,1.252,21.033,21.033,0,0,0,9.835-2.4l.4-.213a40.449,40.449,0,0,0,10.306-7.907,119.473,119.473,0,0,0,8.3-9.887l.012-.016a96.352,96.352,0,0,1,10.36-11.893,104.084,104.084,0,0,1,10.861-8.53,127.484,127.484,0,0,1,11.887-7.191,182.358,182.358,0,0,1,25.757-11.121c-2.475-9.044-3.767-21.453-4.415-30.269-.789-10.735-1.093-22.509-.834-32.3-7.073.334-14.117.5-20.933.5-11.672,0-23.179-.495-34.2-1.47a334.317,334.317,0,0,1-33.876-4.722c2.8,20.4,2.828,44.115,2.856,67.048v.011c.019,15.316.037,29.783.9,42.06a7.426,7.426,0,0,1-1.232,6.805,11.675,11.675,0,0,1-4.366,3.486,12.855,12.855,0,0,1-5.42,1.29,7.638,7.638,0,0,1-4.362-1.216,5.984,5.984,0,0,1-2.464-3.935c-.533-15.776-.095-35.566,1.266-57.23,1.284-20.44,3.368-41.784,5.867-60.1l-2.1-.511a23.318,23.318,0,0,1-5.769-2.049,10.583,10.583,0,0,1-1.19.069,8.421,8.421,0,0,1-4.184-1.066,10.429,10.429,0,0,1-3.231-2.967c-1.744-2.37-3.1-5.72-4.134-10.243-1.9-8.278-2.316-18.737-2.684-27.965v-.008c-.282-7.07-.525-13.176-1.381-16.819-3.96-55.319-8.8-111.692-14.794-172.342-5.342-54.039-11.485-110.264-18.782-171.887-13.556-114.477-29.139-230.653-44.209-343.005l0-.021c-8.606-64.158-17.5-130.5-25.926-195.786a9.051,9.051,0,0,1-5.112-5.5,37.962,37.962,0,0,1-1.893-8.016l-.055-.34c-35.618,24.11-49.964,66.131-63.837,106.767-4.839,14.173-9.408,27.559-14.852,40.312-7.859,21.826-15.635,44.565-23.114,67.586-7.13,21.945-14.224,44.872-21.087,68.145-12.666,42.953-24.85,87.976-37.249,137.645-10.333,41.393-21,86.832-32.613,138.913-10.347,46.407-20.475,93.7-30.268,139.427l-.023.109c-17.481,81.627-35.558,166.034-55.524,248.427l.357.094c.114.034.168.058.166.073s-.042.018-.12.018-.18-.005-.321-.016l-.121-.009v.02a6.644,6.644,0,0,1,5.065,3.6,5.126,5.126,0,0,1-.355,5.042,16.589,16.589,0,0,1-8.709,8.2,31.216,31.216,0,0,1-12.167,2.027,118.484,118.484,0,0,1-13.112-.979c-2.294-.258-4.662-.524-6.8-.674.554,9.721-.016,24.094-.62,39.31-.8,20.1-1.622,40.886.134,52.408,6.435.119,11.073,2.947,14.176,8.646,2.672,4.907,3.755,11.047,4.71,16.464v.005c.248,1.408.483,2.738.734,3.979l.168,1.1c.628,3.975,1.588,8.754,2.605,13.814,1.862,9.271,3.973,19.779,4.911,29.45,1.084,11.181.38,19.124-2.153,24.283a22.732,22.732,0,0,1,4.522,8.381,23.268,23.268,0,0,1,.728,8.865,32.073,32.073,0,0,1-4.588,13.071,38.817,38.817,0,0,1-9.177,10.4c-8.612,6.363-18.836,10.984-28.724,15.453-4.456,2.013-9.063,4.1-13.462,6.311-16.265,6.571-32.749,14.808-48.691,22.773l-.015.008-.007,0c-19.762,9.875-40.2,20.085-61.162,27.69a226.053,226.053,0,0,1-32.082,9.209c-5.579,1.138-11.16,2.009-16.587,2.589a160.894,160.894,0,0,1-17.014.918,153.8,153.8,0,0,1-18.1-1.07,156.643,156.643,0,0,1-18.666-3.39l-3.548-.748c-13.678-2.891-25.784-5.54-35.406-8.7a77.493,77.493,0,0,1-12.358-5.1,36.931,36.931,0,0,1-9-6.508A27.3,27.3,0,0,1,3,2428.87a37.6,37.6,0,0,1-2.732-11.354c-.813-8.4.173-19.112,3.1-33.707a46.069,46.069,0,0,1-2.595-8.766A39.569,39.569,0,0,1,.1,2366.2a32.555,32.555,0,0,1,5.137-16.616,70.529,70.529,0,0,1,14.063-13.23c5.281-3.89,11.1-7.446,16.721-10.886l.012-.007.005,0c5.435-3.324,11.056-6.76,16.152-10.476,11.337-7.618,23.156-14.931,34.586-22l.006,0c15.292-9.463,31.1-19.249,45.9-29.84-.276-.239-.382-.45-.316-.627.1-.28.617-.4,1.078-.4a2.308,2.308,0,0,1,.395.033,38.8,38.8,0,0,0,6.807-6.849,47.768,47.768,0,0,0,4.906-7.854,122.939,122.939,0,0,0,6.656-17.42c2.744-8.438,5.582-17.163,10.9-24.531a10.923,10.923,0,0,1,3.5-4.813,20.154,20.154,0,0,1,5.853-3.21,44.1,44.1,0,0,1,14.8-2.348,48.352,48.352,0,0,1,5.7.325c-.534-2.736-.587-7.255-.153-13.068.4-5.369,1.184-11.554,2.267-17.887,1.078-6.306,2.347-12.147,3.67-16.893,1.424-5.107,2.827-8.595,4.057-10.087a1.875,1.875,0,0,1,1.317-.847c.942,0,1.732,1.481,2.348,4.4a96.015,96.015,0,0,1,1.4,14.783v.782c.008,1.721.072,4.279.147,7.24.151,5.981.339,13.426.247,20.114-.109,7.919-.584,12.707-1.453,14.636a61.285,61.285,0,0,1,11.416,4.76,55.591,55.591,0,0,1,9.353,6.417,62.8,62.8,0,0,1,13.631,16.608,109.191,109.191,0,0,1,8.715,19.656c2.334,6.8,4.209,13.672,6.022,20.318l.023.084c.351,1.286.714,2.616,1.069,3.9l.484.13c.277.071.558.14.857.212l.026.006c2.285.554,4.874,1.181,5.932,3.257a31.591,31.591,0,0,0,7.354-6.668,93.586,93.586,0,0,0,5.749-8.043l0-.005c3.422-5.163,6.959-10.5,12.291-14.207a7.017,7.017,0,0,1-2.571-4.834,11.075,11.075,0,0,1,.905-5.7c2.139-7.844,3.933-20.878,5.832-34.676,1.332-9.68,2.71-19.69,4.326-28.885,1.834-10.435,3.7-18.137,5.691-23.548-9.9-1.482-20.012-2.787-29.795-4.049l-.077-.01-.013,0c-12.978-1.674-26.4-3.4-39.508-5.574a370.427,370.427,0,0,1-38.948-8.375,8.937,8.937,0,0,1-6.234,2.476,7.658,7.658,0,0,1-5.555-2.2,7.261,7.261,0,0,1-1.85-5.5c2.678-43.423,5.92-88.142,9.635-132.915,3.589-43.256,7.73-87.9,12.31-132.693,4.406-43.1,9.354-87.66,14.706-132.453,5.127-42.906,10.787-87.384,16.823-132.2,5.145-43.48,11.819-90.89,20.4-144.939,7.653-48.182,16.082-97.065,24.234-144.34l0-.019c11.417-66.209,23.223-134.673,33.067-202.213l.2-22.5c.155-16.311.39-33.758,1.049-50.832.726-18.8,1.894-35.365,3.571-50.65a442.766,442.766,0,0,1,8.18-49.909c1.9-8.387,4.077-16.63,6.47-24.5,2.505-8.239,5.333-16.349,8.4-24.1-2.419-1.057-4.575-2.045-6.59-3.02a14.392,14.392,0,0,1-5.39,1.255,6.544,6.544,0,0,1-5.345-2.5c-1.6-1.992-2.591-5.232-2.934-9.629a77.247,77.247,0,0,1,.523-14.244c1.183-10.406,3.682-21.852,5.689-31.05v-.006c1.368-6.27,2.449-11.222,2.658-13.8,3.923-21.008,8.106-42.306,12.152-62.9l0-.01c9.863-50.215,20.061-102.14,27.215-153.474a90.526,90.526,0,0,1-15.163-7.051,71.133,71.133,0,0,1-13.341-10.1c-5.944-4.839-11.835-14.059-17.508-27.405-5.276-12.412-10.409-28.487-15.258-47.78-8.814-35.074-16.614-80.407-22.554-131.1-5.448-46.493-8.972-94.735-9.92-135.838-.475-20.562-.3-38.631.534-53.705.863-15.7,2.411-27.714,4.6-35.7a74.276,74.276,0,0,1,12.219-27.13,89.274,89.274,0,0,1,20.582-20.21,131.6,131.6,0,0,1,25.923-14.23,192.362,192.362,0,0,1,28.245-9.192l5.592-1.581c18.727-5.268,40.977-11.3,64.019-16.131a448.921,448.921,0,0,1,65.324-9.2,5.062,5.062,0,0,1,3.283-.9c1.71,0,3.182.452,3.5,1.076,2.4,1.445,4.951,4.248,7.59,8.33,16.75-1.925,29.137-6.473,37.867-13.9,7.578-6.451,11.3-14.11,14.581-20.867,2.041-4.2,3.967-8.166,6.565-11.3A18.575,18.575,0,0,1,586.346,0c.076,0,.152,0,.227,0a5.458,5.458,0,0,1,3.362,1.045,5.311,5.311,0,0,1,1.814,2.571,6.8,6.8,0,0,1,.083,3.956,6.439,6.439,0,0,1-2.293,3.436l-.177.131c-3.469,2.461-5.262,4.666-7.377,9.077a54.955,54.955,0,0,1-8.531,14.96A55.928,55.928,0,0,1,561.11,46.545a56.9,56.9,0,0,1-15.065,7.225,56.421,56.421,0,0,1-16.7,2.531,56.121,56.121,0,0,1-11.19-1.129c4.53,8.451,8.39,16.889,12.122,25.05l0,.01c3.907,8.541,7.947,17.373,12.715,26.108a133.281,133.281,0,0,0,21.62,31.684,143.8,143.8,0,0,0,28.813,24.182,138.091,138.091,0,0,0,32.927,15.428,113.815,113.815,0,0,0,33.964,5.421,87.367,87.367,0,0,0,28.619-4.61,73.633,73.633,0,0,0,24.83-14.421,80.952,80.952,0,0,0,18.868-25.116c5.208-10.563,8.82-22.909,10.735-36.7a22.552,22.552,0,0,1-8.742-3.886,37.255,37.255,0,0,1-7.628-7.458,70.2,70.2,0,0,1-11.046-21.81,80.115,80.115,0,0,1-3.932-26.873c.379-8.961,2.741-15.957,6.831-20.233l.447,2.1c.463,2.205.912,4.419,1.347,6.559l0,.008c2.051,10.1,4.172,20.539,7.679,30.162a80.282,80.282,0,0,0,6.506,13.885,62.869,62.869,0,0,0,9.711,12.469,5.3,5.3,0,0,0,1.519.2c.729-3.453,1.5-6.463,2.353-9.2a6.7,6.7,0,0,1,2.664-3.64,7.166,7.166,0,0,1,4.006-1.181,7.033,7.033,0,0,1,5.078,2.055,6.305,6.305,0,0,1,1.688,4.752c14.151,4.312,29.389,9.778,46.586,16.707,15.313,6.17,30.685,12.888,45.551,19.384l.029.012c2.622,1.146,5.333,2.331,8,3.493a124.791,124.791,0,0,1,36.641,24.446A122.878,122.878,0,0,1,913.1,160.807a121.088,121.088,0,0,1,11.267,19.111c8.618,17.835,17.109,36.7,25.239,56.059,7.626,18.162,15.21,37.426,22.541,57.256,12.956,35.045,25.661,73.232,38.841,116.742a105.014,105.014,0,0,0,3.522,12.5c4.1,12.895,9.7,30.555,5.619,37.991a6.425,6.425,0,0,1-4.123,3.241,137.523,137.523,0,0,1,.411,24.323,163.6,163.6,0,0,1-3.563,24.083,217.314,217.314,0,0,1-16.2,45.926c-1.459,2.478-2.792,5.117-4.2,7.912l0,0a88.605,88.605,0,0,1-7.878,13.559,30.607,30.607,0,0,1-5.2,5.463,22.248,22.248,0,0,1-6.638,3.728,46.447,46.447,0,0,1-11.923,10.457,66.7,66.7,0,0,1-14.668,6.644c-8.853,2.861-19.272,4.608-31.854,5.342,3.441,8.1,7.019,17.718,10.635,28.585,3.652,10.973,7.255,22.959,10.71,35.624,7.362,26.987,13.672,55.672,18.247,82.955,2.482,14.794,4.446,29.135,5.838,42.625,1.485,14.39,2.331,27.933,2.514,40.253.406,27.328-2.4,48.854-8.341,63.979.435,2.047-.3,4.027-2.187,5.884a25.189,25.189,0,0,1-7.47,4.609c-6.11,2.682-13.828,4.612-19.463,6.021h-.005l-.024.006c-2.256.564-4.205,1.052-5.521,1.459a354.543,354.543,0,0,1,4.472,56.893c.114,20.938-1.153,41.512-2.269,57.1-3.188,40.528-6.057,81.232-8.526,120.981-2.519,40.557-4.7,81.3-6.471,121.107-1.809,40.58-3.252,81.355-4.288,121.191-1.056,40.584-1.721,81.373-1.977,121.236-.261,40.57-.1,81.362.463,121.24.578,40.559,1.6,81.338,3.03,121.2,1.457,40.524,3.384,81.277,5.727,121.126,2.38,40.476,5.257,81.189,8.551,121.008,1.508,19.317,3.208,39.6,5.05,60.29l1.083,12.046c1.35,15.259,2.637,31.549,2.257,48.184a8.952,8.952,0,0,1-3.011,6.63,10.74,10.74,0,0,1-6.409,2.64c-5.588,3.565-12.38,6.179-20.767,7.992a211.931,211.931,0,0,1-22.736,3.194l-.02,0c-3.867.4-7.519.781-11.138,1.261,1.054,5.754,1.946,12.5,2.89,19.652l0,.011,0,.035c.948,7.175,1.929,14.594,3.14,21.459a102.554,102.554,0,0,0,4.528,18.093,15.638,15.638,0,0,1,3.948-.527,11.29,11.29,0,0,1,6.133,1.66,6.893,6.893,0,0,1,3.083,4.044,5.9,5.9,0,0,1-.746,4.483,11.978,11.978,0,0,1-4.886,4.261,50.732,50.732,0,0,1,11.646,9.148c3.429,3.512,6.568,7.432,9.6,11.222l.006.008a123.408,123.408,0,0,0,11.762,13.323c6.967-2.83,13.3-4.325,18.313-4.325a14.513,14.513,0,0,1,6.807,1.377,4.32,4.32,0,0,1,2.525,3.371,4.62,4.62,0,0,1-.81,2.86,10.552,10.552,0,0,1-2.917,2.9c-2.912,2.041-7.181,3.582-12.343,4.457a254.979,254.979,0,0,0,22.012,16.292l.544-.075c2.016-.305,4.442-.919,7.011-1.568l.032-.008c4.487-1.134,9.572-2.42,13.887-2.42,4.882,0,7.968,1.652,9.438,5.049a5.9,5.9,0,0,1-.655,4.986c-1.75,2.632-6.017,4.425-12.683,5.331,5.731,3.615,11.36,7.132,17.1,10.717,1.75-.771,3.522-1.621,5.235-2.444a94.586,94.586,0,0,1,9.806-4.262,12.735,12.735,0,0,1,2.748-.322,7.191,7.191,0,0,1,4.933,1.682,5.477,5.477,0,0,1,1.792,3.949,7.577,7.577,0,0,1-2.864,5.845c-2.215,1.9-5.448,3.024-9.351,3.243,4.451,3.288,9.617,4.322,14.614,5.322,6.494,1.3,12.628,2.528,16.335,8.575a45.248,45.248,0,0,1,15.542,10.528,53.4,53.4,0,0,1,10.4,15.477,59.143,59.143,0,0,1,4.856,18.043,53.868,53.868,0,0,1-1.09,18.224,46.46,46.46,0,0,1,10.4,13.57,42.331,42.331,0,0,1,4.6,16.411,21.847,21.847,0,0,1-5.015,16.647,29.574,29.574,0,0,1-16,9.974c-13.281,4.42-27.8,8.845-44.385,13.528l-1.555.535a170.973,170.973,0,0,1-17.329,5.063A79.876,79.876,0,0,1,967.571,2466.076ZM732.553,2346.285c-3.42,7.767-3.811,15.111-1.162,21.828a30.85,30.85,0,0,0,8.67,11.808,54.2,54.2,0,0,0,14.367,8.748c17.189,7.969,34.3,15.24,50.857,21.61,17.98,6.916,35.879,12.99,53.2,18.054a562.514,562.514,0,0,0,55.01,13.2,469.807,469.807,0,0,0,56.281,7.036c11.578-2.8,23.314-6.586,34.664-10.247l.011,0,.01,0c11.308-3.648,23-7.42,34.652-10.263l1.009-.181c4.334-.8,7.2-1.566,9.05-3.15,1.964-1.685,2.688-4.286,2.345-8.432l.3-3.458a118.223,118.223,0,0,0,.546-18.421,36.3,36.3,0,0,1-7.821,11.481,54.09,54.09,0,0,1-11.606,8.74,80.348,80.348,0,0,1-13.8,6.165,100.318,100.318,0,0,1-14.394,3.756A65.394,65.394,0,0,1,976.1,2430.6c-15.138,0-30.515-3.977-45.385-7.823l-.023-.006c-6.535-1.69-12.707-3.286-18.828-4.552-8.557-2.6-19.1-5.527-30.268-8.624l-.01,0c-25.633-7.109-57.535-15.957-85.39-26.43-7.243-2.723-14-5.476-20.069-8.184-6.583-2.935-12.592-5.916-17.862-8.86a125.464,125.464,0,0,1-14.808-9.558A64.48,64.48,0,0,1,732.553,2346.285ZM8.431,2393.276h0c1.113,5.416,1.686,10.1,2.192,14.23,1.006,8.208,1.732,14.139,5.9,18.637a24.691,24.691,0,0,0,9.31,5.831,95.866,95.866,0,0,0,17.288,4.489,210.939,210.939,0,0,0,30.545,7.579,175.655,175.655,0,0,0,28.771,2.43,166.89,166.89,0,0,0,24.593-1.833,179.734,179.734,0,0,0,23.86-5.289c14.99-4.391,30.3-10.836,46.817-19.7,14.739-7.167,30.171-13.827,45.1-20.268l.014-.006c21.25-9.172,43.223-18.657,63.51-29.732l.466-.329a36.268,36.268,0,0,0,9.556-9.785,16.767,16.767,0,0,0,2.4-6.221,11.843,11.843,0,0,0-.877-6.616l-.988.3c-.707.219-1.429.446-2.127.665l-.067.021c-5.707,1.8-11.608,3.655-17.775,3.656A28.274,28.274,0,0,1,290,2350.5c-37.083,12.571-75.973,27.44-126.1,48.213-6.965,3.334-13.8,6.366-20.3,9.011-7.742,3.146-15.322,5.867-22.531,8.089a199.4,199.4,0,0,1-23.748,5.833,138.112,138.112,0,0,1-23.956,2.242,99.642,99.642,0,0,1-18.151-1.6,79.036,79.036,0,0,1-17.188-5.215,71.336,71.336,0,0,1-15.751-9.462A77.7,77.7,0,0,1,8.431,2393.276Zm62.449,13.27c.385,0,.778.007,1.17.007h.005a116.789,116.789,0,0,0,20.111-1.777,153.027,153.027,0,0,0,19.169-4.675c12.531-3.867,24.776-9.08,36.618-14.122,9.017-3.839,18.341-7.809,27.616-11.1,5.822-1.441,19.224-7.121,34.742-13.7l.02-.008C224.9,2355,241.414,2348,256.295,2342.5c17.24-6.375,28.9-9.473,35.651-9.473,3.171,0,5.266.705,6.226,2.1a52.538,52.538,0,0,1,6.087-2.294l.016-.005c4.061-1.345,8.261-2.736,10.842-5.573.714-17.93-2.625-36.694-5.854-54.841v-.006c-.316-1.774-.709-3.981-1.074-6.067-.266-1.3-.662-2.67-1.081-4.121l0-.006a33.88,33.88,0,0,1-1.544-7.191,27.329,27.329,0,0,0-8.5,5.245,85.586,85.586,0,0,0-7.071,7.24l-.009.01c-3.046,3.376-6.2,6.867-9.87,9.437a23.778,23.778,0,0,1-6.018,3.1,22.383,22.383,0,0,1-7.325,1.178c-.8,0-1.63-.038-2.463-.114-1.537,2.456-4.377,2.972-6.487,2.972a18.3,18.3,0,0,1-11.381-4.329c-4.3-3.927-5.319-9.2-6.3-14.3-.133-.691-.284-1.474-.439-2.219l-.546-2.6c-1-4.716-2.258-10.265-3.957-15.666a76.9,76.9,0,0,0-6.428-15.115,44.235,44.235,0,0,0-8.617-11.05,55.5,55.5,0,0,0-11.8-8.441,61.768,61.768,0,0,0-13.766-5.389,57.921,57.921,0,0,0-14.507-1.895,46.76,46.76,0,0,0-15.068,2.38,152.682,152.682,0,0,0-.56,18.757c.077,7.07.157,14.377-.882,21.277a49.786,49.786,0,0,1-2.536,10.092,38.517,38.517,0,0,1-5.049,9.42c11.96,2.1,23.66,4.5,33.528,6.57l10.205,2.158a26.1,26.1,0,0,1,7.466,2.563,7.016,7.016,0,0,1,2.49,2.344,4.947,4.947,0,0,1,.59,3.382,4.341,4.341,0,0,1-1.98,3.2,7.194,7.194,0,0,1-3.785.869,30.632,30.632,0,0,1-8-1.464l-1.988-.583c-16.1-4.741-29.577-8.835-43-13.411a85.476,85.476,0,0,1-12.81,11.235c-4.741,3.48-9.927,6.8-14.5,9.732l0,0,4.047.459,3.113.347,1.115.125h.009c12.614,1.4,25.657,2.852,38.274,5.44a5.569,5.569,0,0,1,3.22,2.318,4.885,4.885,0,0,1,.7,3.305,4.561,4.561,0,0,1-1.429,2.733,4.751,4.751,0,0,1-3.257,1.172,6.8,6.8,0,0,1-.7-.038c-3.971-1.036-7.946-2.106-11.791-3.141l-.009,0c-12.593-3.388-25.613-6.891-38.627-9.286-3,1.982-6.042,4-8.986,5.955l-.227.151-.355.236c-5.029,3.337-10.23,6.787-15.364,10.158,10.583,1.531,21.361,2.173,31.784,2.794l.045,0c5.716.341,11.626.693,17.427,1.188,5.447.5,8.121,4.578,7.948,8.344a6.584,6.584,0,0,1-1.885,4.408,7.185,7.185,0,0,1-5.2,1.927h-.011c-.276,0-.564-.012-.856-.035-20.662-1.893-41.052-8.4-56.507-13.855l-9.607,6.316c-10.13,6.656-21.931,14.388-33.8,21.908-1.6,1.021-3.27,2-5.034,3.045-5.766,3.4-11.729,6.917-15.387,11.745a21.482,21.482,0,0,0-3.45,11.441,22.078,22.078,0,0,0,2.985,10.732c3.78,6.786,11.048,13.151,20.465,17.923,8.935,4.527,18.924,7.124,27.407,7.124C70.486,2406.551,70.691,2406.549,70.88,2406.546ZM345.579,871.1a2.149,2.149,0,0,1,1.651.862c28.654,8.913,57.673,16.885,86.25,23.7,29.235,6.967,58.747,12.892,87.716,17.612,29.651,4.831,59.5,8.524,88.714,10.975,29.913,2.509,59.939,3.782,89.244,3.782h.015c21.441,0,42.994-.682,64.062-2.027,21.428-1.368,42.94-3.46,63.938-6.218,26.513-3.309,54.012-7.99,84.07-14.31a1.92,1.92,0,0,1,.478-1.52,2.363,2.363,0,0,1,1.737-.73,2,2,0,0,1,2.006,1.459c1.263-.22,2.53-.445,3.936-.7h.007c4.776-.849,9.713-1.728,14.548-2.353a9.273,9.273,0,0,1-.11-6.39,135.857,135.857,0,0,0,5.758-25.723,202.174,202.174,0,0,0,1.556-26.7c-.044-17.971-1.929-36.12-3.753-53.672v-.013c-.276-2.651-.56-5.392-.833-8.085-1.637-19.445-4.271-40.585-8.053-64.626-3.373-21.444-7.324-43.153-11.145-64.147l-.023-.125c-2.439-13.4-4.962-27.266-7.307-40.916-17.933-.815-36.126-2.482-53.72-4.1h-.008c-24.831-2.276-50.507-4.63-75.9-4.63-2.729,0-5.449.027-8.087.081a26.63,26.63,0,0,1-4.072,6.982,31.817,31.817,0,0,1-6.107,5.84,26.9,26.9,0,0,1-15.563,5.5,19.332,19.332,0,0,1-9.332-2.341,23.168,23.168,0,0,1-8.859-8.922,75.416,75.416,0,0,1-5.259-11.731c-.577-1.509-1.173-3.07-1.784-4.552-7.473-18.117-15.165-36.314-22.6-53.913l-.01-.023-2.551.645c-26.783,6.7-48.516,9.824-68.394,9.824-3.876,0-7.73-.123-11.455-.367-1.287,4.868-2.038,11.7-2.834,18.937-1.029,9.357-2.195,19.962-4.778,28.665-2.968,10-7.341,15.9-13.368,18.029a16.634,16.634,0,0,1-5.8,1,17.832,17.832,0,0,1-7.826-1.762,11.18,11.18,0,0,1-5.377-5.327c-27.467-.488-55.5-2.4-82.617-4.242-11.2-.763-22.774-1.551-34.137-2.227-6.2-.487-12.557-.874-18.708-1.248l-.045,0c-11.467-.7-23.324-1.418-34.886-2.826a188.66,188.66,0,0,1-34.053-7,183.388,183.388,0,0,1,3.331,25.643,156.267,156.267,0,0,1-.657,25.935c-1.508,17.208-3.965,35.927-7.511,57.224-3.16,18.981-6.873,38.208-10.463,56.8l0,.02c-3.418,17.7-6.952,36-10,54.044-3.418,20.23-5.849,37.995-7.434,54.308l-.334,3.552-.21-.121c0,.139-.01.278-.021.42,1.893.547,3.9,1.152,6.32,1.9A1.445,1.445,0,0,1,345.579,871.1ZM504.145,45.869h0c-20.236,5.978-41.021,11.327-61.121,16.5-27.807,7.156-56.56,14.555-84.3,23.733A117.2,117.2,0,0,0,331.5,96.381a82.627,82.627,0,0,0-21.293,16.151c-12.455,13.317-19.179,30.436-19.984,50.88-.793,22.03-.826,45.018-.1,68.326.684,21.937,2.065,44.912,4.105,68.288,3.651,41.825,9.461,86.187,17.762,135.622l.786,4.051c.852,4.409,1.71,8.9,2.54,13.249l.019.1c3.658,19.161,7.441,38.975,12.012,58.264,2.463,10.393,4.946,19.785,7.59,28.711,2.972,10.031,6.07,19.226,9.473,28.111a146.989,146.989,0,0,0,36.394,11.055,295.748,295.748,0,0,0,38.019,3.95c35.486,1.806,73.235,3.772,110.327,6.2l28.818,1.868c1.688.109,3.485.138,5.386.168,7.438.118,15.868.253,20.884,5.444a2.325,2.325,0,0,0,1.475.917,4.157,4.157,0,0,1,1.076.453l.168.123a6.656,6.656,0,0,1,.8.694,3.208,3.208,0,0,0,2.026,1.186,1.552,1.552,0,0,0,.335-.037c1.959-.608,2.822-4.239,3.337-6.408.051-.213.1-.412.143-.593l.047-.185c1.623-6.352,3.01-12.89,4.351-19.212l.005-.025c.969-4.569,1.971-9.294,3.055-13.91,2.03-7.463,3.69-15.2,5.295-22.69l0-.016c3.057-14.262,6.219-29.009,12.087-42.6-14.2-9.059-25.724-18.425-35.247-28.632l-12.485-4.4c-28.885-10.136-59.721-20.563-91.2-26.916a8.172,8.172,0,0,1-2.889,5.3,8.512,8.512,0,0,1-5.413,2.1,6.466,6.466,0,0,1-5.907-3.808c-3.742-11.247-5.632-23.28-7.461-34.918v-.005c-1.133-7.211-2.3-14.668-3.9-21.853-2.6-15.341-5.377-30.925-8.064-46l0-.026,0-.008c-7.124-39.961-14.492-81.283-19.256-122.275a527.852,527.852,0,0,1,15.314,51.655c4.485,17.985,8.561,36.8,12.5,54.99l0,.017,0,.022c4.24,19.571,8.624,39.808,13.474,58.763a1.264,1.264,0,0,1,.634-.175.874.874,0,0,1,.921.9,207.923,207.923,0,0,1,151.643,1.886c5.213,2.092,10.551,4.124,15.712,6.09l.088.033c6.783,2.583,13.8,5.254,20.637,8.1a23.27,23.27,0,0,0,5.108,1.8c3.766,1.027,7.659,2.089,8.576,5.461a23.063,23.063,0,0,1,6.106-8.85c.553-1.139,4.981-2.885,8.075-2.885,1.708,0,2.753.524,3.023,1.516,20.22,2.775,40.578,7.854,60.267,12.766h.005c14.844,3.7,30.193,7.532,45.41,10.359,8.191,1.522,15.689,2.639,22.924,3.417a215.109,215.109,0,0,0,23.167,1.3c4.382,0,8.748-.153,12.979-.455-5.728-20.91-5.967-43.362-6.2-65.076-.036-3.392-.077-7.236-.142-10.88l.136-2.837c.073-1.57.144-3.125.218-4.77l.018-.383c.527-11.65,1.124-24.854,2.555-37.205,1.638-14.141,4.134-25.139,7.628-33.623a517.667,517.667,0,0,0-1.935,77.131c1.008,23,3.243,47.395,7.032,76.772a82.625,82.625,0,0,1,10.392-.756,28.355,28.355,0,0,1,8.668,1.077c1.956.652,3.221,1.577,3.762,2.749.661,1.433.195,3.147-1.349,4.956-1.954,2.289-5.366,4.433-9.607,6.037a44.1,44.1,0,0,1-15.447,2.745c-.486,0-.977-.008-1.459-.023-3.846.277-7.789.418-11.72.418a185.774,185.774,0,0,1-29.292-2.4,259.53,259.53,0,0,1-28.645-6.311c-18.913-5.217-37.749-12.251-55.965-19.054l-.006,0c-8.73-3.261-17.757-6.632-26.622-9.736-7.473-2.988-13.134-4.44-17.306-4.44-3.346,0-5.849.918-7.651,2.807-3.978,4.168-4.408,12.871-3.812,25.563.024,31.338,13.4,60.146,26.339,88l.128.276c.755,1.626,1.536,3.308,2.3,4.956l6.137,13.8c9.582,21.568,19.868,44.857,30.17,69.012a156.6,156.6,0,0,1,29.652-6.589,239.427,239.427,0,0,1,30.655-1.791c17.094,0,34.5,1.371,51.329,2.7,8.332.656,16.947,1.335,25.262,1.82a216.49,216.49,0,0,0,27.082,1.968,117.791,117.791,0,0,0,15.6-.972,94.8,94.8,0,0,0,14.989-3.2,108.24,108.24,0,0,0,30.087-14.818c2.846-5.437,5.994-10.9,9.038-16.174,4.081-7.076,8.3-14.389,11.912-21.849a114.971,114.971,0,0,0,8.636-23.362,212.48,212.48,0,0,0,6.728-31.525c1.544-10.769,2.532-21.756,3.412-32.087l-1.64-5.981c-12.36-44.949-23.2-81.326-34.13-114.479-13.562-41.155-27.378-77.707-42.236-111.743l-1.726-4.028-.114-.268q-.336-.786-.672-1.573c-10.6-24.814-21.552-50.471-42.91-67.774a236.94,236.94,0,0,0-32.325-19.709c-11.234-5.8-22.99-11.093-34.358-16.216l-.012-.006c-18.163-8.184-36.945-16.646-54.081-27.357l-.247,1.766c-2.347,16.58-5.216,29.722-9.028,41.357a137.21,137.21,0,0,1-8.016,19.506A105.686,105.686,0,0,1,733.029,164a84.636,84.636,0,0,1-15.4,14.671A88.8,88.8,0,0,1,699.6,188.911a98.8,98.8,0,0,1-19.842,6,110.476,110.476,0,0,1-20.839,1.956,119.31,119.31,0,0,1-62.348-17.637c-20.588-11.383-38.353-28-52.8-49.383A204.185,204.185,0,0,1,526.24,97.86a245.143,245.143,0,0,1-12.122-34.5l-.149-.516c-.055-.192-.114-.4-.177-.627l0-.005a68.307,68.307,0,0,0-3.415-9.876c-1.959-4.233-4.055-6.408-6.23-6.465ZM622.51,497.06c-.02,11.134-1.711,22.322-3.345,33.141l0,.017c-.528,3.5-1.074,7.113-1.555,10.669,7.021-1.386,14.147-2.662,21.038-3.9l.032-.006c15.287-2.736,31.094-5.566,46.467-9.735-11.165-4.218-21.939-8.805-32.022-13.631A343.328,343.328,0,0,1,622.51,497.06ZM479.926,430.136c6.114,0,31.46,3.823,57.26,9.815a300.555,300.555,0,0,1,34.54,9.828c10.573,3.888,16.76,7.568,18.388,10.938a3.834,3.834,0,0,1-.548,4.327c8.7,4.65,17.278,9.811,25.578,14.8,7.36,4.426,14.97,9,22.633,13.208a353.336,353.336,0,0,0,51.095,23.024l-.93-2.068c-7.039-15.726-14.789-34.36-18.889-53.323-1.023-4.729-1.8-9.391-2.3-13.856a115.585,115.585,0,0,1-.755-13.941,99.56,99.56,0,0,1,1.086-13.963A91.909,91.909,0,0,1,670.3,405a24.371,24.371,0,0,1-9.107,1.641,50.03,50.03,0,0,1-15.385-2.892c-5.228-1.712-10.426-3.939-15.452-6.093l-.01,0c-4.429-1.9-8.608-3.688-12.418-4.957-8.36-3.355-16.638-6.248-24.6-8.6a223.5,223.5,0,0,0-25.372-5.945,192.14,192.14,0,0,0-37.258-3.39,298.329,298.329,0,0,0-31.3,1.777c-8.969.942-18.813,2.284-30.979,4.224,1.538,7.151,3.2,14.393,4.8,21.4l.007.029c2.1,9.146,4.265,18.6,6.184,27.958C479.562,430.14,479.738,430.136,479.926,430.136ZM397.609,324.857c-2.223,0-6.017-3.256-11.6-9.957-4.773-5.73-10.089-13.079-14.361-18.984-4.348-6.011-7.78-10.755-9.055-11.669-5.082-6.54-10.813-12.748-16.356-18.752l-.006-.007c-5.473-5.927-11.133-12.057-16.154-18.494.016-.865.41-1.3,1.172-1.3,1.436,0,4.232,1.557,8.31,4.628,3.425,2.579,7.078,5.711,9.5,7.783,1.314,1.127,2.264,1.941,2.71,2.27l1.506,1.362a296.442,296.442,0,0,1,26.348,26.537c8.957,10.519,15.585,20.717,20.266,31.177.082,2.467-.254,4.109-1,4.879A1.712,1.712,0,0,1,397.609,324.857ZM857.631,299.87a.464.464,0,0,1-.472-.252c-.38-.851,1.471-3.84,4.4-7.108,3.191-3.558,7.62-7.359,10.479-7.359a2.7,2.7,0,0,1,.612.067,2.179,2.179,0,0,1,.309-.022,2.632,2.632,0,0,1,2.445,2,1.675,1.675,0,0,1-1.092,1.959l-1.206.531c-.492.213-1,.43-1.447.622a54,54,0,0,0-7.461,3.653,18.34,18.34,0,0,0-5.975,5.789A1.977,1.977,0,0,1,857.631,299.87Z" transform="translate(101 6.008)"></path></g><g transform="translate(225 0)"><g><g><path id="_Skin" data-name="âœ‹ Skin" d="M340.529,155c-2.153-18.915.633-58.451.82-60.853,1.18-15.185-5.935-75.148-19.385-69.623C299.4,6.666,269.351,2.722,241.251.838,182.883-3.076,120.791,5.909,75.72,45.189c-22.289,20.4-43.988,50.068-42.244,80.96C13.226,155.431-15.324,195.6,9.908,229.831c8.577,10.937,22.208,15.01,32.982,23.293,21.672,17.48,35.268,42.566,57.145,59.942,57.96,52.083,156.377,62.963,213.323,3.723,44.035-42.9,36.915-107.09,29.169-161.786C337.321,118.23,344.728,191.9,340.529,155Z" transform="translate(65.001 149)" fill="#d08b5b"></path><path id="_Ink" data-name="ðŸ– Ink" d="M250.311,443.271a134.042,134.042,0,0,1-19.031-1.4,105.442,105.442,0,0,1-21.491-5.2,40.754,40.754,0,0,1-10.072-5.32,45.226,45.226,0,0,1-8.2-7.871,6.294,6.294,0,0,1-.675-6.317,3.866,3.866,0,0,1,3.632-2.362,5.178,5.178,0,0,1,.623.039,118.17,118.17,0,0,1,21.024,4.124l1,.317a104.128,104.128,0,0,0,21.541,4.62c3.694.358,7.44.539,11.135.539a110.436,110.436,0,0,0,33.375-5.089,96.9,96.9,0,0,0,16.843-7.179,103.553,103.553,0,0,0,15.255-10.132,108.268,108.268,0,0,0,24.252-27.3c7.019-11.267,11.672-24.011,14.225-38.96,2.453-14.362,2.683-29.15,2.584-41.72-.228-29.893-1.2-61.166-2.89-92.951l-.28-5.159c-.715-13.089-1.64-30.351-2.449-47.81-.269-5.848-.654-10.624-1.211-15.03a39.576,39.576,0,0,1-14.309-13.79,141.029,141.029,0,0,1-20.441,6.43,122.385,122.385,0,0,1-29.191,3.585,115.192,115.192,0,0,1-17.182-1.283c-4.14,1.71-8.423,3.236-12.73,4.536-1.2.53-2.372,1.042-3.5,1.523a212.419,212.419,0,0,1-31.93,10.98l-2.7.673a110.358,110.358,0,0,1-18.2,3.267,26.538,26.538,0,0,1-3.291,1.01,53.5,53.5,0,0,1-12.614,1.5c-1.507,0-3.032-.064-4.535-.189a8.47,8.47,0,0,1-6.809-4.393,6.954,6.954,0,0,1-.8-3.361,7.468,7.468,0,0,1,1.063-3.656c2.223-3.814,4.515-7.7,6.81-11.55a214.565,214.565,0,0,1-24.5,8.419c-7.393,2.082-15.461,4.046-25.391,6.18-2.254.481-4.55.941-6.77,1.387l-.008,0-.008,0c-2.255.453-4.587.921-6.873,1.409-.724.154-1.531.291-2.386.436-3.024.512-6.445,1.092-8.505,2.754-2.272,1.824-3.263,5.465-4.138,8.678-.248.912-.483,1.774-.732,2.532-1.555,4.676-2.889,9.014-4.08,13.26A275.4,275.4,0,0,0,89.65,200.5a259.542,259.542,0,0,0-3.231,27.6c-.243,3.81-.343,7.693-.44,11.448-.138,5.351-.281,10.884-.839,16.292a6.422,6.422,0,0,1-1.929,4.023,5.5,5.5,0,0,1-3.775,1.528,5.9,5.9,0,0,1-3.916-1.571c-.437-.385-.9-.8-1.364-1.213l-.676-.617a68.99,68.99,0,0,1-9.169-9.76c-.47-.646-.931-1.335-1.371-2.05a.328.328,0,0,1-.2-.069l-.734-.553c-7.713-5.742-14.351-8.653-19.73-8.653a11.913,11.913,0,0,0-9.756,4.785c-2.571,3.258-3.86,7.467-4.867,11.156l-1.874,7a121.649,121.649,0,0,0-3.02,13.849,53.032,53.032,0,0,0-.04,16.26,29.684,29.684,0,0,0,6.5,14.7,18.387,18.387,0,0,0,11.279,6.39,14.147,14.147,0,0,0,1.947.126,34.415,34.415,0,0,0,4.475-.394l.027,0q.456-.06.913-.119a15,15,0,0,1,1.871-.106c.661,0,1.33.031,1.976.061h.005c.651.03,1.324.061,1.991.061.562,0,1.064-.022,1.537-.067.153-.015.305-.023.453-.023a3.964,3.964,0,0,1,3.448,1.984,5.721,5.721,0,0,1,.308,5.369,18.167,18.167,0,0,1-2.81,4.15,32.426,32.426,0,0,1,2.471,2.38,12.33,12.33,0,0,1,6.009,4.49,10.188,10.188,0,0,1,2.04,5.56c.127.446.245.923.37,1.5l2.146,3.481c.526.852.988,1.59,1.414,2.258A108.707,108.707,0,0,0,90.14,364.5c2.683,2.443,5.5,4.83,8.219,7.139a183.861,183.861,0,0,1,13.711,12.452l.8.841a52.5,52.5,0,0,1,8.591,11.12c2.445,4.623,3.088,9.006,1.966,13.4a4.689,4.689,0,0,1-4.367,3.27,3.4,3.4,0,0,1-2.043-.66c-4.383-3.253-7.526-7.73-10.565-12.06a76.126,76.126,0,0,0-6.675-8.6c-3.244-3.446-6.722-6.77-10.086-9.984l0,0c-3.272-3.126-6.655-6.359-9.821-9.7A78.044,78.044,0,0,1,65.4,350.085a11.648,11.648,0,0,1-8.016,3.277,10.979,10.979,0,0,1-6.052-1.861,12.382,12.382,0,0,1-4.223-4.766,37.879,37.879,0,0,1-4.271,1.62,8.617,8.617,0,0,1-2.517.393,7.433,7.433,0,0,1-6.3-3.59,9.713,9.713,0,0,1-1.478-4.405,9.444,9.444,0,0,1,.8-4.738,30.273,30.273,0,0,1,5.809-8.68,36.826,36.826,0,0,1-19.821-9.63,40.67,40.67,0,0,1-11.188-21.54,60.016,60.016,0,0,1-1.1-12.283A77.3,77.3,0,0,1,8.19,271.595a121.654,121.654,0,0,1,7.25-25.11c.627-1.532,1.231-2.9,1.849-4.171a1.3,1.3,0,0,1-.99-.48c-.755-1.031-1.576-2.011-2.37-2.958a28.945,28.945,0,0,1-4.17-5.911c-.332-.682-.678-1.378-1.013-2.051a76.048,76.048,0,0,1-3.366-7.419c-2.615-7.059-3.752-14.963-4.45-21.06a158.58,158.58,0,0,1,1.18-42.75,170.791,170.791,0,0,1,9.426-35.324A173.628,173.628,0,0,1,28.118,91.949a11.606,11.606,0,0,1-2.06-1.38l-.319-.278-.518-.468a8.553,8.553,0,0,1-2.716-6.22,9.838,9.838,0,0,1,2.716-7.1l1.093-1.1a28.988,28.988,0,0,1,4.812-3.961c.323-.217.662-.426,1.008-.623a9.567,9.567,0,0,1-.76-7.479,9.927,9.927,0,0,1,5-6.127,17.589,17.589,0,0,1,8.3-1.832,29.707,29.707,0,0,1,12.379,2.823A160.043,160.043,0,0,1,89.509,35.715,310.548,310.548,0,0,1,133.8,17.02a382.367,382.367,0,0,1,46.481-12.4A211.134,211.134,0,0,1,222.145,0c1.919,0,3.842.035,5.715.1l1.229.048a140.719,140.719,0,0,1,19.4,1.822c7.586,1.375,13.556,3.564,18.249,6.693a2.286,2.286,0,0,1,1.6-.688,1.954,1.954,0,0,1,.849.193c11.52,5.5,24.119,9.59,36.3,13.548l2.9.942A177.356,177.356,0,0,0,348.6,30.835a8.341,8.341,0,0,1,3.992,1.438,8.081,8.081,0,0,1,2.732,3.1,6.289,6.289,0,0,1-.441,6.414c-.8,1.227-1.569,2.449-2.279,3.586l1.134-.119h.006c.861-.091,1.752-.185,2.627-.273.18-.018.364-.027.547-.027a7.369,7.369,0,0,1,5.222,2.5A7.73,7.73,0,0,1,364.386,53a74.571,74.571,0,0,1-.83,7.5h.03l.258,0a11.147,11.147,0,0,1,4.363.845c3.408,1.44,5.489,4.14,6.361,8.256.731,3.449.494,7.342.19,11.035-.869,10.526-4.908,20.378-11.082,27.031a42.951,42.951,0,0,1,6.4,8.552,46.562,46.562,0,0,1,4.236,10.179,48.059,48.059,0,0,1,1.96,16.681l-.134,1.673c-.546,6.379-1.641,12.871-5.917,17.147a9.3,9.3,0,0,1-6.693,2.856c-.31,0-.626-.016-.937-.046,1.6,14.077,2.642,28.492,3.57,42.05l.451,6.7c1.244,18.817,2.078,34.286,2.625,48.682.67,17.642.9,33.579.7,48.722a208.31,208.31,0,0,1-1.452,22.5,155.263,155.263,0,0,1-4.208,21.8,124.627,124.627,0,0,1-7.62,20.734,111.491,111.491,0,0,1-11.689,19.3,125.614,125.614,0,0,1-14.016,15.635,123.478,123.478,0,0,1-16.39,13.019,119.108,119.108,0,0,1-18.372,9.994A114.071,114.071,0,0,1,276.23,440.4,116.407,116.407,0,0,1,250.311,443.271ZM63,290.8l-.165,0a10.766,10.766,0,0,1-6.9-2.776,34.718,34.718,0,0,1-5-5.842c-.505-.685-1.027-1.392-1.553-2.072a6.867,6.867,0,0,1-1.67,2.04l-.46.36a8.407,8.407,0,0,1-5.027,2.036c-.092,0-.184,0-.273-.006a9.849,9.849,0,0,1-4.12-1.111,7.465,7.465,0,0,1-3.4-3.97,8.549,8.549,0,0,1,3.056-10.16l-.6-.413a12.088,12.088,0,0,1-3.389-3.245l-.207-.331h.08a3.241,3.241,0,0,1,1.861-4.78,9.719,9.719,0,0,1,3.016-.448c4.238,0,8.953,2.193,12.743,3.954.38.177.772.359,1.152.533,6.036,2.77,11.242,6.957,15.97,11.07,2.147,1.874,3,5.1,2.28,8.63l-.036.178c-.048.242-.1.491-.155.742a6.838,6.838,0,0,1-2.672,3.981A7.7,7.7,0,0,1,63,290.8Z" transform="translate(48 65.001)"></path></g></g><g transform="translate(159 186)"><g><path d="M175.373 49.5872C175.699 49.4437 175.991 49.2049 176.203 48.8583C178.978 44.3099 179.267 38.8813 178.039 33.5637C176.563 27.172 172.899 20.9588 168.944 16.7559C163.959 11.4582 157.895 7.75374 151.246 4.94731C150.762 4.74287 150.267 4.53098 149.763 4.31514C142.964 1.40541 134.597 -2.01031 127.865 1.47064C125.161 2.86951 123.673 5.20381 123.256 7.7496C122.814 10.4534 123.597 13.4099 125.462 15.7216C128.557 19.5594 133.339 20.3533 138.087 21.0465C139.602 21.2677 141.106 21.486 142.53 21.8229C147.429 22.9821 152.604 24.4361 157.104 26.7244C166.253 31.3762 170.54 38.5898 172.747 48.2853C172.837 48.6781 173.037 48.9988 173.3 49.2406C173.575 49.4928 173.921 49.6579 174.285 49.7192C174.651 49.7808 175.032 49.7375 175.373 49.5872ZM58.3942 19.1934C55.0693 22.4329 51.1339 22.9347 47.1526 23.381C44.9405 23.6313 43.1746 23.8331 41.4369 24.2252C36.6605 25.3034 31.9393 26.9272 27.6319 29.2659C23.1292 31.7106 18.2224 34.659 14.6922 38.4361C13.8528 39.3349 13.0615 40.278 12.2691 41.2232C11.5465 42.0851 10.8505 42.9149 10.1169 43.7149C9.27449 44.6339 8.47449 45.597 7.67875 46.5576C7.1867 47.3681 7.0895 47.5675 6.99041 47.775C6.8413 48.0869 6.66786 48.4359 6.46976 48.8103C6.19845 49.323 5.88066 49.8843 5.54784 50.3932C4.9941 51.3234 4.69697 51.5796 4.44022 51.6942C4.01419 51.8839 3.61015 51.9774 3.21817 51.9268C2.85064 51.8793 2.50438 51.7028 2.16244 51.4138C0.455387 49.9715 -0.0480658 47.6046 0.00353523 45.092C0.0818393 41.2793 1.48813 37.0578 2.78452 34.4628C5.79888 28.4331 9.97938 22.1649 15.0062 17.6646C20.7422 12.5276 27.0177 8.63869 34.2256 5.95894C38.705 4.29304 43.8913 2.76391 48.7713 2.95706C52.284 3.09609 55.6373 4.14026 58.4066 6.74782C60.1072 8.34853 60.9235 10.6254 60.9235 12.9006C60.9235 15.2211 60.0757 17.5554 58.3942 19.1934ZM164.634 78.3299C166.478 78.8824 167.779 78.6212 169.441 77.7551C170.719 77.0896 171.589 76.0387 172.088 74.8117C172.599 73.5559 172.706 72.1077 172.454 70.7659C171.405 65.1948 168.042 60.2513 163.503 57.0672C159.091 53.9728 153.589 52.5435 148.048 53.7341C144.003 54.6036 138.007 58.4424 134.85 63.1243C133.504 65.1203 132.671 67.2595 132.581 69.3723C132.495 71.387 133.008 73.4183 135.676 76.096C135.935 76.177 136.208 76.2208 136.477 76.2208C137.138 76.2208 137.821 75.9439 138.274 75.5441C139.469 74.4935 140.311 73.1636 141.178 71.7329C141.641 70.9679 142.102 70.1976 142.69 69.5195C144.449 67.4927 147.002 65.7736 149.683 65.3262C152.167 64.911 154.406 65.6469 156.181 67.0355C158.256 68.6601 159.713 71.1522 160.252 73.8146C160.472 74.8933 161.036 75.8657 161.818 76.6477C162.607 77.4367 163.615 78.0237 164.634 78.3299ZM46.1749 69.1109C43.7479 67.5587 40.8928 67.0259 37.7287 68.4655C35.256 69.5899 30.9192 73.3385 27.9011 78.2662C25.8363 81.6374 24.3721 85.5922 24.6769 89.7117C24.7477 90.6684 24.3942 91.3738 23.8366 91.8954C23.3962 92.3073 22.7601 92.61 22.013 92.7047C21.3786 92.785 20.6686 92.7125 20.0913 92.5324C18.9931 92.1896 18.4119 91.4772 18.1929 90.8957C16.0797 85.2836 16.9901 79.0208 19.3585 73.3707C22.5547 65.7456 28.3592 59.3585 32.1622 57.2993C38.6698 53.7742 46.347 53.612 52.8639 57.2031C58.4114 60.2596 61.8802 65.1942 65.3301 70.2242C66.0635 71.2934 66.7914 72.3548 67.5436 73.3976C69.0513 75.487 69.2013 77.5593 68.6175 79.3363C67.9707 81.3049 66.3215 82.9663 64.2592 83.8357C62.353 84.6393 60.1407 84.7524 58.1831 83.9268C56.5293 83.2293 55.0117 81.8695 54.0513 79.5625C52.434 75.6771 49.7393 71.3904 46.1749 69.1109ZM127.748 115.98C135.872 104.601 124.366 93.898 116.814 89.3079C114.836 87.8879 116.406 83.1842 120.634 83.9112C159.031 90.5082 139.136 156.649 90.112 120.354C84.2754 115.645 91.3434 105.275 97.6342 109.307C97.9532 109.552 98.2876 109.81 98.6364 110.08C105.704 115.544 118.636 125.542 127.748 115.98ZM117.042 185.1C109.675 187.233 101.768 187.424 94.2589 185.221C87.4481 183.222 80.4549 178.823 75.4423 173.003C70.9894 167.832 68.1055 161.549 68.2187 154.842C68.2316 154.076 68.5055 153.436 68.9268 152.94C69.3804 152.406 70.014 152.039 70.6926 151.88C71.3906 151.716 72.1285 151.774 72.7568 152.059C73.3256 152.318 73.8129 152.757 74.1176 153.398C74.8879 154.41 75.6553 155.407 76.4257 156.376C82.6196 164.024 88.618 169.74 97.9319 171.79C102.985 172.903 108.032 172.409 112.663 170.712C117.62 168.895 122.102 165.7 125.613 161.612C127.2 159.765 129.074 159.011 130.905 158.998C132.982 158.983 135.034 159.948 136.579 161.49C138.099 163.006 139.116 165.065 139.209 167.219C139.29 169.11 138.673 171.085 137.032 172.848C131.626 178.652 124.621 182.904 117.042 185.1Z" transform="translate(54.00004 55.05923)" fill-rule="evenodd" stroke="none"></path></g></g><g transform="translate(123 338)"></g><g transform="translate(47 241)"><g><path d="M316.813 3.10942C324.946 1.29242 394.509 -7.19658 396.465 14.9734C398.027 18.5324 397.593 37.5744 390.851 31.9324C373.772 44.8104 378.699 69.5144 366.274 85.8844C349.797 109.469 295.046 106.723 288.055 38.6864C281.114 35.9151 274.999 37.0109 268.751 38.1307C265.935 38.6352 263.093 39.1447 260.135 39.3074C269.752 111.531 152.497 141.921 143.304 53.8704C141.966 42.4674 138.517 43.4774 128.359 40.2094C126.53 39.8254 124.439 39.4604 122.435 38.8834C119.102 39.9934 117.307 38.4075 114.671 36.0782C106.929 29.2369 91.9299 15.9829 9.37509 45.7834C9.28609 50.3874 6.06709 52.6614 2.84509 50.4264C-18.3829 21.4114 85.4011 13.5744 108.135 14.3954C112.562 13.1234 116.74 12.4004 120.176 13.7484C138.328 -0.852581 224.917 -9.07258 250.63 19.5904C267.763 24.9805 282.206 18.1835 296.811 11.31C303.36 8.22787 309.942 5.13039 316.813 3.10942ZM368.291 12.4564C368.281 12.4694 368.269 12.4804 368.259 12.4934C368.182 12.4464 368.106 12.3984 368.027 12.3524C368.114 12.3884 368.206 12.4194 368.291 12.4564ZM351.985 88.3954C336.977 95.6234 316.039 84.9624 305.948 73.7954C302.275 69.7294 299.441 58.0964 300.854 50.7184C304.681 30.7374 319.061 18.7454 334.242 14.6504C355.286 8.97242 376.464 23.3564 373.995 40.3304C371.654 56.4174 368.107 79.7524 351.985 88.3954ZM210.244 96.4944C231.144 90.8474 248.631 71.7884 249.834 50.0134C250.295 40.7774 247.593 31.6544 240.983 25.3334C218.401 18.1694 173.188 13.7214 154.605 39.8164C149.88 46.4504 151.641 54.1844 152.39 56.7184C159.928 82.2194 176.57 105.89 210.244 96.4944Z" transform="translate(1.000312 17.99998)" fill-rule="evenodd" stroke="none">
        
    </path></g></g></g></g></svg>