<svg xmlns="http://www.w3.org/2000/svg" width="256" height="256" fill="none" viewBox="0 0 256 256"><g clip-path="url(#clip0_30_2)"><path stroke="#fff" stroke-linecap="round" stroke-linejoin="round" stroke-width="16" d="M95.9999 161.679C117.275 159.44 138.725 159.44 160 161.679M45.1286 196.017C45.378 197.068 45.8376 198.059 46.4796 198.928C47.1217 199.797 47.933 200.528 48.8648 201.076C49.7965 201.623 50.8294 201.977 51.9013 202.115C52.9733 202.253 54.062 202.173 55.1022 201.879C102.791 188.712 153.156 188.707 200.848 201.865C201.888 202.159 202.976 202.239 204.048 202.101C205.119 201.962 206.152 201.609 207.083 201.062C208.015 200.514 208.826 199.784 209.468 198.915C210.11 198.047 210.57 197.057 210.819 196.006L236.308 87.6889C236.649 86.2388 236.579 84.7223 236.105 83.3101C235.631 81.8979 234.772 80.6461 233.625 79.6958C232.477 78.7455 231.088 78.1343 229.612 77.9311C228.136 77.728 226.633 77.9409 225.272 78.5459L174.688 101.028C172.861 101.839 170.797 101.938 168.902 101.304C167.006 100.67 165.416 99.3495 164.446 97.6022L134.993 44.5879C134.3 43.3407 133.287 42.3016 132.057 41.5781C130.827 40.8545 129.427 40.473 128 40.473C126.573 40.473 125.173 40.8545 123.943 41.5781C122.713 42.3016 121.7 43.3407 121.007 44.5879L91.5543 97.6022C90.5836 99.3495 88.994 100.67 87.0984 101.304C85.2028 101.938 83.1385 101.839 81.312 101.028L30.7205 78.5425C29.3595 77.9376 27.8567 77.7246 26.3812 77.9276C24.9057 78.1306 23.5162 78.7414 22.3691 79.6913C21.2219 80.6413 20.3628 81.8925 19.8883 83.3043C19.4138 84.7161 19.3428 86.2323 19.6834 87.6822L45.1286 196.017Z"/></g><defs><clipPath id="clip0_30_2"><rect width="256" height="256" fill="#fff"/></clipPath></defs></svg>