<svg width="300" height="300" viewBox="0 0 300 300" fill="none" xmlns="http://www.w3.org/2000/svg">
<g filter="url(#filter0_dd_118_3)">
<rect x="25" y="23" width="250" height="254" rx="32" fill="white"/>
<rect x="26" y="24" width="248" height="252" rx="31" stroke="#A8A8A8" stroke-width="2"/>
</g>
<g filter="url(#filter1_ii_118_3)">
<path d="M118.453 171.169C139.429 168.747 160.578 168.747 181.554 171.169M68.2967 208.33C68.5426 209.468 68.9957 210.539 69.6287 211.48C70.2618 212.421 71.0617 213.212 71.9804 213.804C72.899 214.397 73.9174 214.78 74.9743 214.929C76.0311 215.078 77.1046 214.992 78.1301 214.674C125.149 200.424 174.807 200.419 221.828 214.659C222.854 214.976 223.927 215.063 224.983 214.914C226.04 214.764 227.058 214.382 227.976 213.789C228.894 213.197 229.694 212.407 230.327 211.467C230.96 210.526 231.413 209.455 231.66 208.318L256.79 91.0971C257.127 89.5278 257.057 87.8866 256.59 86.3584C256.122 84.8301 255.275 83.4754 254.144 82.4469C253.013 81.4185 251.643 80.7571 250.188 80.5372C248.733 80.3173 247.251 80.5478 245.909 81.2025L196.036 105.532C194.235 106.411 192.2 106.517 190.331 105.831C188.462 105.145 186.894 103.716 185.937 101.825L156.899 44.4531C156.216 43.1034 155.216 41.9789 154.004 41.1959C152.791 40.4129 151.41 40 150.004 40C148.597 40 147.216 40.4129 146.004 41.1959C144.791 41.9789 143.792 43.1034 143.109 44.4531L114.07 101.825C113.113 103.716 111.546 105.145 109.677 105.831C107.808 106.517 105.773 106.411 103.972 105.532L54.0911 81.1988C52.7492 80.5442 51.2674 80.3138 49.8127 80.5334C48.3579 80.7531 46.9879 81.4141 45.8569 82.4421C44.7259 83.4701 43.8788 84.8243 43.411 86.3521C42.9432 87.8799 42.8732 89.5207 43.209 91.0899L68.2967 208.33Z" stroke="#646464" stroke-width="16" stroke-linecap="round" stroke-linejoin="round"/>
</g>
<g filter="url(#filter2_di_118_3)">
<path d="M66.5703 232.508C68.0286 232.977 69.4479 233.25 70.8281 233.328C72.2344 233.406 73.7448 233.419 75.3594 233.367C76.0625 233.367 76.7526 233.328 77.4297 233.25C78.1068 233.172 78.7839 233.12 79.4609 233.094C80.1641 233.042 80.8542 233.029 81.5312 233.055C82.2083 233.081 82.8854 233.185 83.5625 233.367C83.8229 233.445 84.0703 233.549 84.3047 233.68C84.5651 233.784 84.8125 233.888 85.0469 233.992C85.6719 234.227 86.1276 234.461 86.4141 234.695C86.7266 234.904 87.026 235.281 87.3125 235.828C87.8333 236.089 88.2891 236.349 88.6797 236.609C89.0703 236.87 89.3958 237.156 89.6562 237.469C89.9427 237.781 90.1771 238.146 90.3594 238.562C90.5417 238.953 90.7109 239.422 90.8672 239.969C91.0234 240.594 91.0755 241.232 91.0234 241.883C90.9714 242.508 90.8542 243.12 90.6719 243.719C90.4896 244.292 90.2682 244.839 90.0078 245.359C89.7474 245.88 89.487 246.336 89.2266 246.727C88.9401 247.091 88.6406 247.443 88.3281 247.781C88.0417 248.094 87.6901 248.406 87.2734 248.719C87.1172 248.849 86.987 248.992 86.8828 249.148C86.7786 249.305 86.6615 249.435 86.5312 249.539C86.375 249.643 86.1797 249.76 85.9453 249.891C85.7109 249.995 85.4896 250.099 85.2812 250.203C85.0729 250.307 84.9297 250.424 84.8516 250.555C84.7734 250.659 84.6562 250.737 84.5 250.789C83.9271 250.997 83.3542 251.18 82.7812 251.336C82.2083 251.492 81.6354 251.674 81.0625 251.883C80.8542 251.935 80.6589 252.013 80.4766 252.117C80.2943 252.195 80.125 252.247 79.9688 252.273C79.7865 252.299 79.6172 252.286 79.4609 252.234C79.3047 252.182 79.1094 252.156 78.875 252.156C78.6406 252.182 78.3802 252.26 78.0938 252.391C77.8333 252.495 77.5339 252.56 77.1953 252.586C76.7786 252.612 76.362 252.612 75.9453 252.586C75.5286 252.534 75.0859 252.534 74.6172 252.586C74.2526 252.612 73.9401 252.638 73.6797 252.664C73.4193 252.69 73.1979 252.755 73.0156 252.859C72.8333 252.938 72.6641 253.068 72.5078 253.25C72.3776 253.406 72.2344 253.641 72.0781 253.953C72.026 254.109 71.974 254.292 71.9219 254.5C71.8698 254.682 71.8177 254.878 71.7656 255.086C71.5833 255.581 71.4401 256.089 71.3359 256.609C71.2318 257.104 71.2057 257.625 71.2578 258.172C71.2578 258.328 71.2448 258.484 71.2188 258.641C71.2188 258.771 71.2318 258.875 71.2578 258.953C71.3099 259.188 71.401 259.396 71.5312 259.578C71.6875 259.76 71.8438 259.956 72 260.164C72.1562 260.346 72.2865 260.542 72.3906 260.75C72.5208 260.958 72.5859 261.206 72.5859 261.492C72.1432 261.831 71.5703 261.987 70.8672 261.961C70.1901 261.909 69.487 261.883 68.7578 261.883C68.1068 261.883 67.5339 261.87 67.0391 261.844C66.5443 261.792 65.9974 261.805 65.3984 261.883C65.112 261.935 64.8255 262.013 64.5391 262.117C64.2786 262.247 64.0052 262.339 63.7188 262.391C63.5104 262.417 63.2891 262.404 63.0547 262.352C62.8464 262.326 62.625 262.339 62.3906 262.391C62.0781 262.443 61.7786 262.508 61.4922 262.586C61.2057 262.69 60.9323 262.794 60.6719 262.898C60.3854 263.003 60.099 263.081 59.8125 263.133C59.526 263.211 59.2526 263.237 58.9922 263.211C58.862 262.82 58.888 262.495 59.0703 262.234C59.2526 262 59.5 261.779 59.8125 261.57C60.125 261.362 60.4505 261.167 60.7891 260.984C61.1016 260.802 61.3229 260.581 61.4531 260.32C61.6354 259.852 61.8568 259.409 62.1172 258.992C62.3776 258.576 62.599 258.107 62.7812 257.586C62.9635 257.091 63.1068 256.57 63.2109 256.023C63.3151 255.477 63.4714 254.956 63.6797 254.461C63.7839 254.253 63.9271 254.057 64.1094 253.875C64.2917 253.693 64.4089 253.497 64.4609 253.289C64.5651 252.898 64.5911 252.495 64.5391 252.078C64.513 251.635 64.5651 251.206 64.6953 250.789C64.7474 250.633 64.8385 250.49 64.9688 250.359C65.099 250.229 65.1901 250.086 65.2422 249.93C65.3203 249.643 65.3333 249.344 65.2812 249.031C65.2292 248.719 65.2161 248.419 65.2422 248.133C65.2682 247.898 65.3203 247.677 65.3984 247.469C65.4766 247.26 65.5417 247.039 65.5938 246.805C65.6198 246.701 65.6198 246.583 65.5938 246.453C65.5938 246.323 65.6068 246.193 65.6328 246.062C65.737 245.776 65.8802 245.49 66.0625 245.203C66.2448 244.917 66.388 244.591 66.4922 244.227C66.7786 243.315 67.0651 242.339 67.3516 241.297C67.6641 240.229 67.7943 239.135 67.7422 238.016C67.7161 237.859 67.6771 237.716 67.625 237.586C67.599 237.43 67.5729 237.286 67.5469 237.156C67.5208 236.792 67.5208 236.479 67.5469 236.219C67.599 235.958 67.5599 235.698 67.4297 235.438C67.3516 235.281 67.1953 235.073 66.9609 234.812C66.7266 234.526 66.5182 234.24 66.3359 233.953C66.1797 233.641 66.0885 233.354 66.0625 233.094C66.0365 232.833 66.2057 232.638 66.5703 232.508ZM77.8984 248.992C78.237 248.836 78.5234 248.641 78.7578 248.406C78.9922 248.172 79.3047 248.055 79.6953 248.055C79.9036 247.846 80.0469 247.599 80.125 247.312C80.2292 247.026 80.3594 246.753 80.5156 246.492C80.9062 246.362 81.1667 246.141 81.2969 245.828C81.4271 245.516 81.5573 245.177 81.6875 244.812C81.7396 244.682 81.8047 244.565 81.8828 244.461C81.987 244.331 82.0651 244.201 82.1172 244.07C82.4557 243.315 82.7031 242.612 82.8594 241.961C83.0156 241.284 83.0286 240.529 82.8984 239.695C82.8464 239.253 82.7292 238.888 82.5469 238.602C82.3906 238.289 82.1953 238.016 81.9609 237.781C81.7266 237.521 81.4792 237.286 81.2188 237.078C80.9583 236.87 80.7109 236.635 80.4766 236.375C80.2161 236.323 79.9167 236.232 79.5781 236.102C79.2656 235.945 78.901 235.88 78.4844 235.906C78.224 235.906 77.9635 235.945 77.7031 236.023C77.4688 236.102 77.2214 236.167 76.9609 236.219C76.5964 236.896 76.2969 237.677 76.0625 238.562C75.8281 239.422 75.5286 240.216 75.1641 240.945C75.112 241.102 75.0208 241.245 74.8906 241.375C74.7865 241.505 74.7083 241.635 74.6562 241.766C74.6302 241.922 74.6432 242.091 74.6953 242.273C74.7734 242.43 74.7995 242.586 74.7734 242.742C74.7474 242.924 74.6953 243.094 74.6172 243.25C74.5651 243.38 74.513 243.523 74.4609 243.68C74.3568 244.018 74.2656 244.383 74.1875 244.773C74.1354 245.164 74.0443 245.542 73.9141 245.906C73.7578 246.479 73.5755 247.026 73.3672 247.547C73.1589 248.068 73.1458 248.602 73.3281 249.148C73.9531 249.357 74.7083 249.461 75.5938 249.461C76.4792 249.461 77.2474 249.305 77.8984 248.992ZM113.675 251.609C114.248 252.052 114.834 252.495 115.433 252.938C116.058 253.38 116.553 253.914 116.917 254.539C116.839 254.773 116.826 254.969 116.878 255.125C116.93 255.255 117.008 255.385 117.112 255.516C117.243 255.62 117.36 255.737 117.464 255.867C117.594 255.971 117.685 256.115 117.737 256.297C117.816 256.635 117.79 257.026 117.659 257.469C117.529 257.885 117.438 258.302 117.386 258.719C117.334 258.927 117.295 259.148 117.269 259.383C117.269 259.591 117.243 259.799 117.191 260.008C117.086 260.555 117.008 261.076 116.956 261.57C116.904 262.065 116.969 262.586 117.152 263.133C117.282 263.549 117.503 264.005 117.816 264.5C118.154 265.021 118.493 265.359 118.831 265.516C118.961 265.594 119.066 265.62 119.144 265.594C119.222 265.594 119.326 265.62 119.456 265.672C119.612 265.75 119.73 265.867 119.808 266.023C119.912 266.18 120.081 266.297 120.316 266.375C120.68 266.141 121.084 266.076 121.527 266.18C121.969 266.31 122.412 266.362 122.855 266.336C122.985 266.336 123.102 266.297 123.206 266.219C123.31 266.167 123.415 266.141 123.519 266.141C124.118 266.089 124.73 266.036 125.355 265.984C126.006 265.932 126.631 265.815 127.23 265.633C127.516 265.555 127.816 265.424 128.128 265.242C128.441 265.06 128.753 264.878 129.066 264.695C129.482 264.435 129.899 264.161 130.316 263.875C130.758 263.589 131.253 263.536 131.8 263.719C131.826 264.214 131.748 264.604 131.566 264.891C131.383 265.203 131.149 265.464 130.862 265.672C130.576 265.906 130.277 266.128 129.964 266.336C129.652 266.544 129.391 266.779 129.183 267.039C128.714 267.169 128.336 267.339 128.05 267.547C127.764 267.781 127.438 268.016 127.073 268.25C126.865 268.354 126.657 268.432 126.448 268.484C126.266 268.536 126.084 268.628 125.902 268.758C125.693 268.862 125.511 269.005 125.355 269.188C125.198 269.37 125.029 269.526 124.847 269.656C124.639 269.786 124.391 269.865 124.105 269.891C123.844 269.943 123.597 269.995 123.362 270.047C122.659 270.255 121.917 270.424 121.136 270.555C120.355 270.711 119.56 270.802 118.753 270.828C117.972 270.88 117.191 270.841 116.409 270.711C115.628 270.607 114.886 270.398 114.183 270.086C113.792 269.93 113.467 269.721 113.206 269.461C112.972 269.227 112.711 268.966 112.425 268.68C112.086 268.393 111.722 268.055 111.331 267.664C110.967 267.299 110.68 266.935 110.472 266.57C110.394 266.362 110.316 266.115 110.237 265.828C110.185 265.542 110.12 265.255 110.042 264.969C109.964 264.682 109.86 264.357 109.73 263.992C109.626 263.654 109.573 263.289 109.573 262.898C109.547 262.247 109.599 261.57 109.73 260.867C109.886 260.138 110.016 259.435 110.12 258.758C110.251 258.055 110.316 257.391 110.316 256.766C110.316 256.115 110.185 255.542 109.925 255.047C109.847 254.891 109.73 254.747 109.573 254.617C109.443 254.461 109.313 254.292 109.183 254.109C108.896 253.745 108.584 253.419 108.245 253.133C107.907 252.82 107.438 252.625 106.839 252.547C106.422 252.495 105.954 252.495 105.433 252.547C104.912 252.573 104.534 252.677 104.3 252.859C103.935 253.068 103.727 253.406 103.675 253.875C103.649 254.318 103.584 254.786 103.48 255.281C103.349 255.88 103.167 256.427 102.933 256.922C102.724 257.417 102.659 257.977 102.737 258.602C102.79 258.862 102.868 259.174 102.972 259.539C103.076 259.904 103.18 260.19 103.284 260.398C103.362 260.581 103.493 260.802 103.675 261.062C103.857 261.323 103.883 261.557 103.753 261.766C103.597 261.974 103.336 262.052 102.972 262C102.607 261.948 102.243 261.909 101.878 261.883C101.435 261.857 101.058 261.844 100.745 261.844C100.459 261.818 100.185 261.818 99.925 261.844C99.6646 261.844 99.3911 261.87 99.1047 261.922C98.8182 261.948 98.4667 261.987 98.05 262.039C97.8417 262.065 97.6724 262.091 97.5422 262.117C97.438 262.143 97.3339 262.169 97.2297 262.195C97.1516 262.247 97.0604 262.286 96.9562 262.312C96.8781 262.365 96.7479 262.417 96.5656 262.469C96.4094 262.521 96.2661 262.586 96.1359 262.664C96.0057 262.768 95.8755 262.846 95.7453 262.898C95.3026 263.029 94.8208 263.107 94.3 263.133C93.7792 263.185 93.2844 263.211 92.8156 263.211C92.3729 263.237 91.9302 263.224 91.4875 263.172C91.0187 263.146 90.6021 263.068 90.2375 262.938C90.2896 262.625 90.4328 262.417 90.6672 262.312C90.9016 262.208 91.0969 262.065 91.2531 261.883C91.9302 261.753 92.6203 261.466 93.3234 261.023C94.0005 260.555 94.4432 259.982 94.6516 259.305C94.7297 259.07 94.7818 258.823 94.8078 258.562C94.8339 258.276 94.8729 258.003 94.925 257.742C95.0552 257.065 95.1854 256.375 95.3156 255.672C95.4458 254.969 95.6151 254.266 95.8234 253.562C95.8755 253.432 95.9406 253.315 96.0187 253.211C96.0969 253.107 96.162 252.99 96.2141 252.859C96.3703 252.417 96.4615 251.961 96.4875 251.492C96.5396 250.997 96.6307 250.529 96.7609 250.086C96.8911 249.747 97.0214 249.435 97.1516 249.148C97.2818 248.836 97.3859 248.523 97.4641 248.211C97.5422 247.872 97.6073 247.547 97.6594 247.234C97.7375 246.922 97.8677 246.635 98.05 246.375C98.1021 245.932 98.1542 245.516 98.2062 245.125C98.2583 244.734 98.2714 244.279 98.2453 243.758C98.5318 243.419 98.7922 243.068 99.0266 242.703C99.287 242.312 99.4562 241.857 99.5344 241.336C99.5865 241.049 99.5734 240.776 99.4953 240.516C99.4432 240.255 99.4172 239.969 99.4172 239.656C99.4432 238.979 99.4953 238.38 99.5734 237.859C99.6776 237.312 99.7557 236.701 99.8078 236.023C99.5995 235.555 99.274 235.242 98.8312 235.086C98.4146 234.904 97.9589 234.656 97.4641 234.344C97.3859 234.318 97.2818 234.266 97.1516 234.188C97.0214 234.109 96.8781 234.031 96.7219 233.953C96.5917 233.849 96.4745 233.745 96.3703 233.641C96.2922 233.536 96.2531 233.445 96.2531 233.367C96.2792 233.185 96.3833 233.042 96.5656 232.938C96.774 232.807 96.9953 232.729 97.2297 232.703C97.4901 232.651 97.7505 232.638 98.0109 232.664C98.2714 232.664 98.4927 232.677 98.675 232.703C99.326 232.833 99.951 232.964 100.55 233.094C101.149 233.224 101.761 233.341 102.386 233.445C103.037 233.523 103.714 233.576 104.417 233.602C105.146 233.628 105.967 233.602 106.878 233.523C107.217 233.497 107.503 233.458 107.737 233.406C107.998 233.328 108.284 233.276 108.597 233.25C109.04 233.224 109.469 233.185 109.886 233.133C110.329 233.055 110.771 233.042 111.214 233.094C112.021 233.172 112.737 233.172 113.362 233.094C113.987 232.99 114.652 232.977 115.355 233.055C115.693 233.107 116.006 233.211 116.292 233.367C116.605 233.497 116.904 233.641 117.191 233.797C117.503 233.953 117.803 234.096 118.089 234.227C118.402 234.331 118.714 234.396 119.027 234.422C119.495 234.708 119.938 235.073 120.355 235.516C120.797 235.958 121.201 236.453 121.566 237C121.852 237.443 122.126 237.951 122.386 238.523C122.646 239.096 122.842 239.578 122.972 239.969C123.154 240.438 123.232 240.906 123.206 241.375C123.18 241.818 123.115 242.247 123.011 242.664C122.803 243.419 122.542 244.096 122.23 244.695C121.917 245.294 121.566 245.867 121.175 246.414C120.81 246.935 120.42 247.469 120.003 248.016C119.612 248.536 119.248 249.083 118.909 249.656C118.701 249.734 118.493 249.786 118.284 249.812C118.102 249.812 117.92 249.852 117.737 249.93C117.451 250.06 117.204 250.255 116.995 250.516C116.787 250.75 116.514 250.919 116.175 251.023C116.045 251.076 115.902 251.089 115.745 251.062C115.615 251.036 115.485 251.036 115.355 251.062C115.068 251.141 114.795 251.245 114.534 251.375C114.3 251.479 114.014 251.557 113.675 251.609ZM111.37 248.289C111.787 247.768 112.243 247.286 112.737 246.844C113.232 246.375 113.623 245.841 113.909 245.242C114.04 244.956 114.144 244.617 114.222 244.227C114.326 243.81 114.417 243.419 114.495 243.055C114.626 242.273 114.639 241.583 114.534 240.984C114.43 240.385 114.248 239.852 113.987 239.383C113.727 238.914 113.402 238.51 113.011 238.172C112.62 237.833 112.191 237.534 111.722 237.273C111.357 237.065 110.98 236.844 110.589 236.609C110.224 236.349 109.769 236.297 109.222 236.453C108.831 236.688 108.506 237.065 108.245 237.586C108.011 238.107 107.79 238.589 107.581 239.031C107.503 239.214 107.412 239.396 107.308 239.578C107.23 239.76 107.165 239.917 107.112 240.047C107.086 240.229 107.086 240.424 107.112 240.633C107.139 240.815 107.126 241.01 107.073 241.219C107.021 241.401 106.891 241.531 106.683 241.609C106.474 241.661 106.357 241.779 106.331 241.961C106.331 242.143 106.396 242.312 106.527 242.469C106.683 242.599 106.761 242.768 106.761 242.977C106.735 243.289 106.618 243.641 106.409 244.031C106.227 244.422 106.11 244.826 106.058 245.242C106.006 245.633 105.915 246.01 105.784 246.375C105.68 246.74 105.563 247.104 105.433 247.469C105.329 247.833 105.224 248.211 105.12 248.602C105.042 248.966 105.016 249.344 105.042 249.734C105.563 249.839 106.123 249.878 106.722 249.852C107.321 249.826 107.907 249.747 108.48 249.617C109.053 249.487 109.586 249.318 110.081 249.109C110.602 248.875 111.032 248.602 111.37 248.289ZM140.35 262.156C139.777 262 139.178 261.935 138.553 261.961C137.928 261.987 137.316 261.974 136.717 261.922C136.431 261.87 136.131 261.792 135.819 261.688C135.532 261.583 135.233 261.505 134.92 261.453C133.67 261.219 132.577 261.167 131.639 261.297C130.728 261.427 129.777 261.648 128.787 261.961C128.579 262.039 128.371 262.117 128.162 262.195C127.928 262.299 127.694 262.391 127.459 262.469C127.225 262.547 126.991 262.586 126.756 262.586C126.496 262.612 126.248 262.56 126.014 262.43C126.092 262.091 126.248 261.805 126.483 261.57C126.691 261.336 126.939 261.115 127.225 260.906C127.485 260.672 127.746 260.424 128.006 260.164C128.241 259.904 128.41 259.591 128.514 259.227C128.592 258.94 128.618 258.667 128.592 258.406C128.566 258.12 128.579 257.82 128.631 257.508C128.683 257.039 128.787 256.518 128.944 255.945C129.126 255.346 129.308 254.786 129.491 254.266C129.673 253.719 129.842 253.185 129.998 252.664C130.155 252.117 130.311 251.609 130.467 251.141C130.571 250.88 130.741 250.633 130.975 250.398C131.235 250.138 131.392 249.812 131.444 249.422C131.47 249.214 131.444 249.018 131.366 248.836C131.314 248.628 131.301 248.458 131.327 248.328C131.353 248.146 131.418 247.977 131.522 247.82C131.626 247.664 131.704 247.495 131.756 247.312C131.808 247.182 131.847 247.039 131.873 246.883C131.899 246.727 131.939 246.583 131.991 246.453C132.121 245.984 132.251 245.464 132.381 244.891C132.511 244.292 132.642 243.745 132.772 243.25C132.902 242.807 133.071 242.404 133.28 242.039C133.514 241.674 133.67 241.297 133.748 240.906C133.748 240.724 133.683 240.607 133.553 240.555C133.449 240.477 133.371 240.346 133.319 240.164C133.449 239.878 133.501 239.5 133.475 239.031C133.449 238.536 133.449 238.094 133.475 237.703C133.527 237.234 133.579 236.831 133.631 236.492C133.709 236.128 133.657 235.75 133.475 235.359C133.345 235.073 133.176 234.812 132.967 234.578C132.759 234.344 132.694 234.018 132.772 233.602C133.084 233.523 133.384 233.471 133.67 233.445C133.983 233.393 134.321 233.38 134.686 233.406C134.868 233.432 135.037 233.484 135.194 233.562C135.35 233.641 135.532 233.706 135.741 233.758C136.34 233.836 136.926 233.849 137.498 233.797C138.097 233.719 138.67 233.68 139.217 233.68C139.764 233.68 140.168 233.693 140.428 233.719C140.689 233.745 141.053 233.732 141.522 233.68C142.121 233.628 142.707 233.51 143.28 233.328C143.853 233.12 144.412 232.977 144.959 232.898C145.22 232.846 145.532 232.846 145.897 232.898C146.261 232.951 146.561 233.081 146.795 233.289C146.847 233.68 146.743 233.927 146.483 234.031C146.248 234.135 146.027 234.24 145.819 234.344C145.402 234.552 145.077 234.799 144.842 235.086C144.608 235.372 144.347 235.698 144.061 236.062C143.879 236.297 143.709 236.492 143.553 236.648C143.423 236.805 143.293 237.026 143.162 237.312C143.11 237.443 143.071 237.612 143.045 237.82C143.045 238.003 143.006 238.172 142.928 238.328C142.72 238.901 142.433 239.474 142.069 240.047C141.73 240.62 141.496 241.154 141.366 241.648C141.314 241.909 141.274 242.156 141.248 242.391C141.248 242.625 141.222 242.872 141.17 243.133C141.066 243.471 140.923 243.849 140.741 244.266C140.558 244.656 140.389 245.06 140.233 245.477C140.024 245.997 139.79 246.583 139.53 247.234C139.295 247.859 139.087 248.471 138.905 249.07C138.801 249.461 138.709 249.865 138.631 250.281C138.579 250.672 138.514 251.076 138.436 251.492C138.384 251.883 138.345 252.299 138.319 252.742C138.293 253.185 138.215 253.576 138.084 253.914C137.98 254.174 137.798 254.396 137.537 254.578C137.303 254.76 137.121 254.995 136.991 255.281C137.043 255.385 137.108 255.464 137.186 255.516C137.29 255.568 137.329 255.672 137.303 255.828C137.225 255.984 137.147 256.167 137.069 256.375C136.991 256.557 136.965 256.753 136.991 256.961C137.043 257.221 137.16 257.469 137.342 257.703C137.551 257.911 137.681 258.12 137.733 258.328C137.785 258.484 137.798 258.628 137.772 258.758C137.746 258.888 137.759 259.018 137.811 259.148C137.889 259.435 138.032 259.708 138.241 259.969C138.475 260.229 138.696 260.424 138.905 260.555C139.217 260.763 139.543 260.919 139.881 261.023C140.246 261.128 140.506 261.362 140.662 261.727L140.35 262.156ZM186.634 232.195C186.4 232.638 186.114 232.99 185.775 233.25C185.463 233.484 185.124 233.732 184.759 233.992C184.447 234.279 184.095 234.539 183.705 234.773C183.314 234.982 182.976 235.229 182.689 235.516C182.142 236.115 181.66 236.857 181.244 237.742C180.853 238.602 180.476 239.461 180.111 240.32C180.007 240.529 179.864 240.737 179.681 240.945C179.525 241.154 179.395 241.375 179.291 241.609C179.004 242.312 178.757 243.055 178.548 243.836C178.366 244.617 178.184 245.411 178.002 246.219C177.845 247 177.676 247.794 177.494 248.602C177.311 249.409 177.09 250.19 176.83 250.945C176.699 251.076 176.543 251.193 176.361 251.297C176.179 251.375 176.048 251.505 175.97 251.688C175.996 251.818 176.048 251.948 176.127 252.078C176.231 252.182 176.296 252.312 176.322 252.469C176.348 252.677 176.309 252.885 176.205 253.094C176.127 253.302 176.061 253.536 176.009 253.797C175.879 254.552 175.671 255.385 175.384 256.297C175.124 257.182 174.785 257.885 174.369 258.406C174.134 259.188 173.913 259.982 173.705 260.789C173.522 261.596 173.21 262.299 172.767 262.898C172.533 262.977 172.311 263.081 172.103 263.211C171.921 263.341 171.686 263.406 171.4 263.406C171.27 263.406 171.127 263.367 170.97 263.289C170.84 263.211 170.684 263.146 170.502 263.094C170.293 263.042 170.059 262.99 169.798 262.938C169.538 262.911 169.291 262.859 169.056 262.781C168.822 262.729 168.588 262.664 168.353 262.586C168.145 262.508 167.936 262.469 167.728 262.469C167.494 262.469 167.181 262.469 166.791 262.469C166.4 262.469 166.101 262.43 165.892 262.352C165.814 262.091 165.697 261.857 165.541 261.648C165.41 261.414 165.293 261.167 165.189 260.906C165.085 260.672 164.968 260.411 164.838 260.125C164.707 259.839 164.629 259.552 164.603 259.266C164.577 259.135 164.59 258.992 164.642 258.836C164.694 258.68 164.707 258.536 164.681 258.406C164.629 258.198 164.525 257.99 164.369 257.781C164.213 257.573 164.108 257.365 164.056 257.156C164.03 257.026 164.03 256.896 164.056 256.766C164.082 256.609 164.082 256.466 164.056 256.336C164.03 256.154 163.965 256.01 163.861 255.906C163.783 255.802 163.718 255.672 163.666 255.516C163.614 255.438 163.601 255.359 163.627 255.281C163.653 255.177 163.653 255.086 163.627 255.008C163.574 254.826 163.483 254.656 163.353 254.5C163.249 254.318 163.171 254.148 163.119 253.992C163.015 253.576 162.963 253.146 162.963 252.703C162.989 252.234 162.976 251.779 162.923 251.336C162.871 250.971 162.78 250.62 162.65 250.281C162.546 249.917 162.494 249.539 162.494 249.148C162.494 248.94 162.533 248.758 162.611 248.602C162.689 248.445 162.728 248.276 162.728 248.094C162.754 247.885 162.728 247.703 162.65 247.547C162.572 247.391 162.52 247.208 162.494 247C162.416 246.818 162.285 246.688 162.103 246.609C161.947 246.531 161.791 246.44 161.634 246.336C161.426 245.581 161.14 244.721 160.775 243.758C160.41 242.768 160.124 241.883 159.916 241.102C159.916 241.049 159.89 241.128 159.838 241.336C159.811 241.518 159.759 241.753 159.681 242.039C159.629 242.326 159.551 242.625 159.447 242.938C159.343 243.25 159.213 243.497 159.056 243.68C159.265 244.044 159.278 244.487 159.095 245.008C158.913 245.529 158.757 246.049 158.627 246.57C158.444 247.326 158.275 248.094 158.119 248.875C157.963 249.63 157.754 250.385 157.494 251.141C157.442 251.323 157.377 251.479 157.298 251.609C157.22 251.74 157.155 251.883 157.103 252.039C157.025 252.299 156.986 252.573 156.986 252.859C156.986 253.146 156.96 253.432 156.908 253.719C156.856 254.005 156.804 254.279 156.752 254.539C156.726 254.799 156.686 255.06 156.634 255.32C156.556 255.789 156.465 256.31 156.361 256.883C156.283 257.456 156.166 258.016 156.009 258.562C155.879 259.083 155.697 259.565 155.463 260.008C155.228 260.424 154.929 260.724 154.564 260.906C154.278 261.089 154.017 261.154 153.783 261.102C153.574 261.049 153.353 260.945 153.119 260.789C152.989 260.815 152.91 260.906 152.884 261.062C152.858 261.193 152.793 261.284 152.689 261.336C152.324 261.31 152.025 261.375 151.791 261.531C151.556 261.661 151.296 261.766 151.009 261.844C150.931 261.87 150.84 261.883 150.736 261.883C150.658 261.857 150.58 261.87 150.502 261.922C150.267 262 150.059 262.104 149.877 262.234C149.694 262.365 149.512 262.482 149.33 262.586C149.173 262.716 149.004 262.82 148.822 262.898C148.64 262.977 148.444 262.99 148.236 262.938C147.923 262.859 147.702 262.69 147.572 262.43C147.416 262.169 147.233 261.935 147.025 261.727C147.077 261.362 147.168 260.958 147.298 260.516C147.403 260.073 147.533 259.63 147.689 259.188C147.819 258.719 147.963 258.276 148.119 257.859C148.275 257.417 148.418 257.026 148.548 256.688C148.627 256.401 148.718 256.128 148.822 255.867C148.9 255.607 148.978 255.333 149.056 255.047C149.134 254.786 149.239 254.539 149.369 254.305C149.499 254.044 149.59 253.784 149.642 253.523C149.694 253.237 149.707 252.964 149.681 252.703C149.655 252.417 149.655 252.13 149.681 251.844C149.733 251.583 149.824 251.297 149.955 250.984C150.085 250.672 150.189 250.372 150.267 250.086C150.528 249.201 150.801 248.354 151.088 247.547C151.374 246.714 151.778 245.984 152.298 245.359C152.298 244.995 152.351 244.656 152.455 244.344C152.559 244.031 152.663 243.732 152.767 243.445C152.871 243.159 152.936 242.885 152.963 242.625C152.989 242.339 152.923 242.039 152.767 241.727C152.871 241.258 153.002 240.815 153.158 240.398C153.34 239.956 153.483 239.487 153.588 238.992C153.614 238.862 153.614 238.719 153.588 238.562C153.588 238.406 153.614 238.263 153.666 238.133C153.718 237.898 153.809 237.651 153.939 237.391C154.095 237.104 154.252 236.831 154.408 236.57C154.59 236.284 154.746 236.01 154.877 235.75C155.033 235.49 155.137 235.255 155.189 235.047C155.476 234.995 155.749 234.943 156.009 234.891C156.27 234.812 156.582 234.773 156.947 234.773C157.103 234.773 157.259 234.799 157.416 234.852C157.572 234.878 157.728 234.878 157.884 234.852C158.171 234.799 158.379 234.669 158.509 234.461C158.666 234.253 158.848 234.096 159.056 233.992C159.421 233.94 159.772 233.914 160.111 233.914C160.476 233.888 160.827 233.823 161.166 233.719C161.322 233.667 161.517 233.602 161.752 233.523C162.012 233.445 162.22 233.406 162.377 233.406C162.689 233.406 162.936 233.523 163.119 233.758C163.327 233.992 163.496 234.279 163.627 234.617C163.757 234.93 163.874 235.255 163.978 235.594C164.082 235.906 164.226 236.154 164.408 236.336C164.408 237.117 164.447 237.833 164.525 238.484C164.603 239.109 164.668 239.839 164.72 240.672C164.824 241.557 164.968 242.378 165.15 243.133C165.332 243.862 165.528 244.617 165.736 245.398C165.814 245.737 165.866 246.076 165.892 246.414C165.944 246.753 166.035 247.065 166.166 247.352C166.374 247.872 166.582 248.354 166.791 248.797C167.025 249.24 167.168 249.721 167.22 250.242C167.298 250.841 167.324 251.414 167.298 251.961C167.272 252.482 167.324 253.003 167.455 253.523C167.585 253.94 167.728 254.279 167.884 254.539C168.041 254.799 168.262 255.099 168.548 255.438C168.835 255.073 169.004 254.682 169.056 254.266C169.108 253.849 169.16 253.432 169.213 253.016C169.291 252.573 169.395 252.156 169.525 251.766C169.655 251.349 169.785 250.919 169.916 250.477C170.046 249.852 170.215 249.201 170.423 248.523C170.658 247.846 170.892 247.234 171.127 246.688C171.179 246.531 171.27 246.362 171.4 246.18C171.53 245.997 171.647 245.815 171.752 245.633C171.908 245.346 171.934 245.021 171.83 244.656C171.752 244.266 171.739 243.888 171.791 243.523C171.843 243.263 171.908 242.99 171.986 242.703C172.09 242.391 172.181 242.078 172.259 241.766C172.442 241.01 172.546 240.203 172.572 239.344C172.624 238.484 172.741 237.742 172.923 237.117C173.002 236.909 173.106 236.622 173.236 236.258C173.366 235.893 173.418 235.581 173.392 235.32C173.392 235.112 173.314 234.956 173.158 234.852C173.028 234.747 172.963 234.591 172.963 234.383C172.963 234.174 173.054 233.992 173.236 233.836C173.444 233.68 173.679 233.549 173.939 233.445C174.226 233.341 174.512 233.263 174.798 233.211C175.111 233.159 175.371 233.133 175.58 233.133C175.814 233.133 176.022 233.159 176.205 233.211C176.413 233.263 176.608 233.315 176.791 233.367C176.973 233.419 177.168 233.471 177.377 233.523C177.611 233.549 177.871 233.549 178.158 233.523C178.601 233.471 179.095 233.419 179.642 233.367C180.189 233.289 180.723 233.237 181.244 233.211C181.504 233.185 181.752 233.172 181.986 233.172C182.246 233.146 182.468 233.107 182.65 233.055C182.91 232.977 183.171 232.898 183.431 232.82C183.692 232.716 184.004 232.638 184.369 232.586C184.681 232.534 184.981 232.469 185.267 232.391C185.58 232.286 185.84 232.195 186.048 232.117C186.127 232.065 186.205 232.039 186.283 232.039C186.387 232.013 186.504 232.065 186.634 232.195ZM216.473 232.898C216.63 233.315 216.578 233.68 216.317 233.992C216.083 234.279 215.835 234.487 215.575 234.617C215.106 234.852 214.533 235.008 213.856 235.086C213.205 235.164 212.619 235.307 212.098 235.516C211.812 235.646 211.591 235.815 211.434 236.023C211.278 236.206 211.057 236.336 210.77 236.414C209.859 236.414 208.947 236.401 208.036 236.375C207.151 236.349 206.226 236.375 205.262 236.453C205.08 236.479 204.898 236.531 204.716 236.609C204.533 236.661 204.351 236.688 204.169 236.688C203.934 236.688 203.687 236.648 203.427 236.57C203.192 236.492 202.945 236.479 202.684 236.531C202.554 236.557 202.437 236.622 202.333 236.727C202.255 236.805 202.151 236.896 202.02 237C201.552 237.286 201.031 237.573 200.458 237.859C199.885 238.12 199.351 238.419 198.856 238.758C198.414 239.07 198.036 239.474 197.723 239.969C197.411 240.438 197.085 240.932 196.747 241.453C196.643 241.635 196.526 241.818 196.395 242C196.291 242.156 196.213 242.299 196.161 242.43C196.109 242.586 196.083 242.768 196.083 242.977C196.109 243.159 196.096 243.354 196.044 243.562C195.992 243.875 195.927 244.214 195.848 244.578C195.77 244.943 195.666 245.281 195.536 245.594C195.406 245.932 195.262 246.271 195.106 246.609C194.976 246.922 194.885 247.234 194.833 247.547C194.781 247.911 194.742 248.276 194.716 248.641C194.716 248.979 194.651 249.344 194.52 249.734C194.442 250.073 194.351 250.411 194.247 250.75C194.169 251.062 194.117 251.401 194.091 251.766C194.065 252.365 194.104 252.951 194.208 253.523C194.312 254.07 194.364 254.643 194.364 255.242C194.807 255.763 195.21 256.271 195.575 256.766C195.966 257.234 196.473 257.573 197.098 257.781C197.333 257.859 197.593 257.898 197.88 257.898C198.166 257.898 198.466 257.885 198.778 257.859C199.091 257.807 199.403 257.768 199.716 257.742C200.054 257.69 200.38 257.677 200.692 257.703C200.927 257.729 201.109 257.781 201.239 257.859C201.395 257.911 201.539 257.964 201.669 258.016C201.825 258.068 201.981 258.12 202.137 258.172C202.32 258.224 202.528 258.237 202.762 258.211C203.205 258.185 203.648 258.159 204.091 258.133C204.533 258.107 204.976 258.068 205.419 258.016C206.122 257.964 206.76 257.833 207.333 257.625C207.932 257.417 208.505 257.221 209.052 257.039C209.182 256.987 209.312 256.961 209.442 256.961C209.572 256.961 209.703 256.935 209.833 256.883C210.041 256.805 210.223 256.714 210.38 256.609C210.562 256.505 210.77 256.401 211.005 256.297C211.239 256.167 211.473 256.036 211.708 255.906C211.968 255.776 212.164 255.737 212.294 255.789C212.476 255.841 212.58 256.023 212.606 256.336C212.658 256.622 212.671 256.805 212.645 256.883C212.593 257.065 212.45 257.221 212.216 257.352C211.981 257.482 211.747 257.651 211.512 257.859C211.252 258.042 211.031 258.211 210.848 258.367C210.666 258.523 210.484 258.667 210.302 258.797C209.859 259.109 209.39 259.396 208.895 259.656C208.427 259.917 207.997 260.177 207.606 260.438C207.242 260.646 206.942 260.867 206.708 261.102C206.473 261.31 206.174 261.479 205.809 261.609C205.419 261.766 204.976 261.87 204.481 261.922C203.986 261.948 203.557 262.026 203.192 262.156C202.906 262.26 202.684 262.404 202.528 262.586C202.398 262.794 202.151 262.951 201.786 263.055C201.109 263.289 200.393 263.432 199.637 263.484C198.882 263.536 198.088 263.51 197.255 263.406C196.005 263.224 194.768 262.911 193.544 262.469C192.346 262.052 191.278 261.583 190.341 261.062C190.21 260.698 189.976 260.411 189.637 260.203C189.299 259.995 189.026 259.721 188.817 259.383C188.531 259.018 188.283 258.641 188.075 258.25C187.893 257.833 187.58 257.495 187.137 257.234C187.242 256.609 187.151 256.128 186.864 255.789C186.578 255.424 186.291 255.086 186.005 254.773C185.718 253.706 185.523 252.586 185.419 251.414C185.341 250.242 185.432 249.083 185.692 247.938C185.744 247.729 185.809 247.547 185.887 247.391C185.992 247.234 186.07 247.065 186.122 246.883C186.2 246.648 186.252 246.401 186.278 246.141C186.304 245.88 186.343 245.646 186.395 245.438C186.63 244.578 186.942 243.797 187.333 243.094C187.723 242.365 188.14 241.648 188.583 240.945C188.791 240.633 188.999 240.346 189.208 240.086C189.442 239.826 189.677 239.539 189.911 239.227C190.015 239.096 190.106 238.966 190.184 238.836C190.289 238.68 190.406 238.536 190.536 238.406C190.744 238.198 190.979 238.029 191.239 237.898C191.499 237.742 191.734 237.56 191.942 237.352C192.229 237.013 192.437 236.609 192.567 236.141C192.723 235.646 192.945 235.229 193.231 234.891C193.283 234.812 193.374 234.721 193.505 234.617C193.661 234.513 193.817 234.409 193.973 234.305C194.156 234.201 194.325 234.109 194.481 234.031C194.664 233.927 194.807 233.849 194.911 233.797C195.458 233.536 196.018 233.38 196.591 233.328C197.19 233.25 197.828 233.107 198.505 232.898C198.895 232.768 199.299 232.638 199.716 232.508C200.132 232.378 200.523 232.286 200.887 232.234C201.486 232.13 202.177 232.065 202.958 232.039C203.739 232.013 204.468 232.065 205.145 232.195C205.249 232.221 205.341 232.26 205.419 232.312C205.497 232.339 205.601 232.365 205.731 232.391C206.018 232.443 206.291 232.443 206.552 232.391C206.838 232.339 207.098 232.339 207.333 232.391C207.463 232.417 207.58 232.469 207.684 232.547C207.789 232.599 207.919 232.638 208.075 232.664C208.205 232.716 208.348 232.742 208.505 232.742C208.661 232.716 208.817 232.729 208.973 232.781C209.13 232.833 209.299 232.898 209.481 232.977C209.664 233.029 209.833 233.081 209.989 233.133C210.354 233.185 210.744 233.211 211.161 233.211C211.578 233.211 211.968 233.198 212.333 233.172C213.036 233.12 213.726 233.029 214.403 232.898C215.08 232.768 215.77 232.768 216.473 232.898ZM250.609 233.367C250.74 233.706 250.701 233.992 250.492 234.227C250.31 234.461 250.089 234.643 249.828 234.773C249.229 235.112 248.578 235.398 247.875 235.633C247.172 235.841 246.521 236.128 245.922 236.492C245.557 236.701 245.232 236.948 244.945 237.234C244.659 237.521 244.294 237.742 243.852 237.898C243.409 238.029 242.914 238.107 242.367 238.133C241.846 238.159 241.299 238.198 240.727 238.25C240.128 238.302 239.542 238.393 238.969 238.523C238.396 238.654 237.875 238.693 237.406 238.641C237.198 238.615 236.977 238.576 236.742 238.523C236.508 238.445 236.286 238.393 236.078 238.367C235.87 238.341 235.635 238.354 235.375 238.406C235.115 238.458 234.867 238.497 234.633 238.523C234.477 238.549 234.307 238.549 234.125 238.523C233.943 238.497 233.747 238.497 233.539 238.523C233.305 238.549 233.044 238.576 232.758 238.602C232.497 238.628 232.237 238.68 231.977 238.758C231.716 238.81 231.482 238.888 231.273 238.992C231.091 239.096 230.961 239.24 230.883 239.422C230.753 240.177 230.57 240.88 230.336 241.531C230.128 242.182 229.906 242.833 229.672 243.484C229.542 243.823 229.398 244.188 229.242 244.578C229.112 244.969 229.125 245.346 229.281 245.711C230.401 245.893 231.495 245.919 232.562 245.789C233.656 245.659 234.711 245.633 235.727 245.711C236.013 245.737 236.326 245.776 236.664 245.828C237.003 245.854 237.315 245.893 237.602 245.945C237.81 245.997 238.018 246.128 238.227 246.336C238.461 246.518 238.695 246.635 238.93 246.688C239.294 246.766 239.646 246.792 239.984 246.766C240.323 246.714 240.648 246.714 240.961 246.766C241.195 246.896 241.378 247.091 241.508 247.352C241.638 247.586 241.833 247.781 242.094 247.938C242.25 248.068 242.419 248.133 242.602 248.133C242.81 248.133 242.992 248.211 243.148 248.367C243.148 248.758 243.083 249.07 242.953 249.305C242.823 249.513 242.654 249.656 242.445 249.734C242.237 249.812 241.99 249.852 241.703 249.852C241.417 249.852 241.104 249.839 240.766 249.812C240.297 249.76 239.75 249.747 239.125 249.773C238.526 249.773 237.966 249.786 237.445 249.812C237.107 249.812 236.781 249.826 236.469 249.852C236.156 249.878 235.87 249.865 235.609 249.812C235.401 249.76 235.206 249.656 235.023 249.5C234.867 249.318 234.659 249.214 234.398 249.188C234.164 249.135 233.891 249.161 233.578 249.266C233.292 249.344 233.005 249.409 232.719 249.461C231.885 249.617 231.091 249.812 230.336 250.047C229.607 250.255 228.865 250.438 228.109 250.594C227.589 251.635 227.172 252.885 226.859 254.344C226.807 254.656 226.755 254.969 226.703 255.281C226.651 255.594 226.638 255.88 226.664 256.141C226.69 256.375 226.781 256.57 226.938 256.727C227.094 256.883 227.367 256.961 227.758 256.961C228.096 256.961 228.461 256.935 228.852 256.883C229.268 256.831 229.672 256.779 230.062 256.727C230.479 256.674 230.896 256.648 231.312 256.648C231.755 256.622 232.185 256.661 232.602 256.766C232.836 256.818 233.07 256.935 233.305 257.117C233.539 257.299 233.812 257.378 234.125 257.352C234.333 257.326 234.529 257.221 234.711 257.039C234.893 256.831 235.102 256.688 235.336 256.609C235.648 256.479 236 256.414 236.391 256.414C236.781 256.388 237.198 256.388 237.641 256.414C238.083 256.414 238.526 256.44 238.969 256.492C239.438 256.518 239.88 256.531 240.297 256.531C241.026 256.531 241.807 256.557 242.641 256.609C243.5 256.661 244.229 256.792 244.828 257C245.062 257.339 245.089 257.677 244.906 258.016C244.724 258.354 244.464 258.549 244.125 258.602C243.812 259.044 243.474 259.357 243.109 259.539C242.745 259.721 242.25 259.917 241.625 260.125C241.156 260.255 240.753 260.424 240.414 260.633C240.076 260.841 239.62 260.958 239.047 260.984C238.292 260.984 237.536 260.984 236.781 260.984C236.026 260.958 235.271 261.01 234.516 261.141C233.995 261.245 233.487 261.362 232.992 261.492C232.523 261.622 232.029 261.727 231.508 261.805C230.206 262.013 228.943 262.26 227.719 262.547C226.521 262.833 225.232 263.003 223.852 263.055C223.565 263.081 223.279 263.12 222.992 263.172C222.706 263.224 222.471 263.224 222.289 263.172C222.081 263.146 221.911 263.042 221.781 262.859C221.651 262.677 221.482 262.534 221.273 262.43C221.091 262.378 220.922 262.339 220.766 262.312C220.609 262.286 220.466 262.247 220.336 262.195C220.18 262.117 220.036 262 219.906 261.844C219.776 261.661 219.633 261.492 219.477 261.336C219.32 261.154 219.151 260.984 218.969 260.828C218.812 260.672 218.669 260.49 218.539 260.281C218.305 259.839 218.096 259.344 217.914 258.797C217.758 258.25 217.719 257.638 217.797 256.961C217.849 256.492 218.005 256.036 218.266 255.594C218.526 255.125 218.721 254.63 218.852 254.109C218.956 253.667 219.008 253.237 219.008 252.82C219.008 252.404 219.06 251.974 219.164 251.531C219.529 251.141 219.776 250.724 219.906 250.281C220.062 249.839 220.232 249.279 220.414 248.602C220.466 248.367 220.544 248.12 220.648 247.859C220.753 247.599 220.805 247.365 220.805 247.156C220.831 246.922 220.792 246.701 220.688 246.492C220.609 246.258 220.57 246.01 220.57 245.75C220.57 245.464 220.648 245.125 220.805 244.734C220.961 244.344 221.104 243.966 221.234 243.602C221.365 243.185 221.456 242.781 221.508 242.391C221.586 242 221.677 241.622 221.781 241.258C221.833 241.076 221.898 240.919 221.977 240.789C222.081 240.633 222.159 240.477 222.211 240.32C222.289 239.982 222.354 239.617 222.406 239.227C222.458 238.836 222.497 238.445 222.523 238.055C222.549 237.664 222.536 237.286 222.484 236.922C222.458 236.557 222.38 236.232 222.25 235.945C222.146 235.789 221.964 235.581 221.703 235.32C221.443 235.06 221.247 234.865 221.117 234.734C220.987 234.63 220.831 234.539 220.648 234.461C220.466 234.383 220.375 234.279 220.375 234.148C220.349 233.992 220.388 233.875 220.492 233.797C220.596 233.719 220.714 233.667 220.844 233.641C220.974 233.615 221.117 233.615 221.273 233.641C221.43 233.641 221.56 233.641 221.664 233.641C222.497 233.745 223.305 233.849 224.086 233.953C224.867 234.031 225.727 234.031 226.664 233.953C226.872 233.927 227.133 233.901 227.445 233.875C227.758 233.823 228.07 233.784 228.383 233.758C228.721 233.706 229.034 233.667 229.32 233.641C229.633 233.615 229.88 233.615 230.062 233.641C230.141 233.667 230.219 233.706 230.297 233.758C230.401 233.81 230.518 233.862 230.648 233.914C231.143 234.096 231.716 234.24 232.367 234.344C233.018 234.422 233.682 234.357 234.359 234.148C235.375 234.279 236.443 234.266 237.562 234.109C238.682 233.953 239.802 233.849 240.922 233.797C241.208 233.771 241.495 233.797 241.781 233.875C242.068 233.927 242.367 233.966 242.68 233.992C243.122 234.044 243.591 234.057 244.086 234.031C244.607 234.005 245.128 233.966 245.648 233.914C246.091 233.862 246.547 233.836 247.016 233.836C247.51 233.81 247.953 233.758 248.344 233.68C248.682 233.628 249.034 233.549 249.398 233.445C249.789 233.315 250.193 233.289 250.609 233.367Z" fill="#646464"/>
</g>
<defs>
<filter id="filter0_dd_118_3" x="17" y="15" width="266" height="270" filterUnits="userSpaceOnUse" color-interpolation-filters="sRGB">
<feFlood flood-opacity="0" result="BackgroundImageFix"/>
<feColorMatrix in="SourceAlpha" type="matrix" values="0 0 0 0 0 0 0 0 0 0 0 0 0 0 0 0 0 0 127 0" result="hardAlpha"/>
<feOffset dx="-4" dy="4"/>
<feGaussianBlur stdDeviation="2"/>
<feComposite in2="hardAlpha" operator="out"/>
<feColorMatrix type="matrix" values="0 0 0 0 0 0 0 0 0 0 0 0 0 0 0 0 0 0 0.25 0"/>
<feBlend mode="normal" in2="BackgroundImageFix" result="effect1_dropShadow_118_3"/>
<feColorMatrix in="SourceAlpha" type="matrix" values="0 0 0 0 0 0 0 0 0 0 0 0 0 0 0 0 0 0 127 0" result="hardAlpha"/>
<feOffset dx="4" dy="-4"/>
<feGaussianBlur stdDeviation="2"/>
<feComposite in2="hardAlpha" operator="out"/>
<feColorMatrix type="matrix" values="0 0 0 0 0 0 0 0 0 0 0 0 0 0 0 0 0 0 0.25 0"/>
<feBlend mode="normal" in2="effect1_dropShadow_118_3" result="effect2_dropShadow_118_3"/>
<feBlend mode="normal" in="SourceGraphic" in2="effect2_dropShadow_118_3" result="shape"/>
</filter>
<filter id="filter1_ii_118_3" x="35" y="31" width="230" height="196" filterUnits="userSpaceOnUse" color-interpolation-filters="sRGB">
<feFlood flood-opacity="0" result="BackgroundImageFix"/>
<feBlend mode="normal" in="SourceGraphic" in2="BackgroundImageFix" result="shape"/>
<feColorMatrix in="SourceAlpha" type="matrix" values="0 0 0 0 0 0 0 0 0 0 0 0 0 0 0 0 0 0 127 0" result="hardAlpha"/>
<feOffset dy="4"/>
<feGaussianBlur stdDeviation="2"/>
<feComposite in2="hardAlpha" operator="arithmetic" k2="-1" k3="1"/>
<feColorMatrix type="matrix" values="0 0 0 0 0 0 0 0 0 0 0 0 0 0 0 0 0 0 0.25 0"/>
<feBlend mode="normal" in2="shape" result="effect1_innerShadow_118_3"/>
<feColorMatrix in="SourceAlpha" type="matrix" values="0 0 0 0 0 0 0 0 0 0 0 0 0 0 0 0 0 0 127 0" result="hardAlpha"/>
<feOffset dy="-1"/>
<feGaussianBlur stdDeviation="2"/>
<feComposite in2="hardAlpha" operator="arithmetic" k2="-1" k3="1"/>
<feColorMatrix type="matrix" values="0 0 0 0 0 0 0 0 0 0 0 0 0 0 0 0 0 0 0.25 0"/>
<feBlend mode="normal" in2="effect1_innerShadow_118_3" result="effect2_innerShadow_118_3"/>
</filter>
<filter id="filter2_di_118_3" x="54.7969" y="232" width="200.008" height="46.9062" filterUnits="userSpaceOnUse" color-interpolation-filters="sRGB">
<feFlood flood-opacity="0" result="BackgroundImageFix"/>
<feColorMatrix in="SourceAlpha" type="matrix" values="0 0 0 0 0 0 0 0 0 0 0 0 0 0 0 0 0 0 127 0" result="hardAlpha"/>
<feOffset dy="4"/>
<feGaussianBlur stdDeviation="2"/>
<feComposite in2="hardAlpha" operator="out"/>
<feColorMatrix type="matrix" values="0 0 0 0 0 0 0 0 0 0 0 0 0 0 0 0 0 0 0.25 0"/>
<feBlend mode="normal" in2="BackgroundImageFix" result="effect1_dropShadow_118_3"/>
<feBlend mode="normal" in="SourceGraphic" in2="effect1_dropShadow_118_3" result="shape"/>
<feColorMatrix in="SourceAlpha" type="matrix" values="0 0 0 0 0 0 0 0 0 0 0 0 0 0 0 0 0 0 127 0" result="hardAlpha"/>
<feOffset dy="4"/>
<feGaussianBlur stdDeviation="2"/>
<feComposite in2="hardAlpha" operator="arithmetic" k2="-1" k3="1"/>
<feColorMatrix type="matrix" values="0 0 0 0 0 0 0 0 0 0 0 0 0 0 0 0 0 0 0.25 0"/>
<feBlend mode="normal" in2="shape" result="effect2_innerShadow_118_3"/>
</filter>
</defs>
</svg>
